<svg width="209" height="74" viewBox="0 0 209 74" fill="none" xmlns="http://www.w3.org/2000/svg">
<path d="M0.740842 30.9912C0.29063 31.6866 0.489405 32.6153 1.18482 33.0655C1.88023 33.5158 2.80895 33.317 3.25916 32.6216L0.740842 30.9912ZM13.0067 11.0166L11.5216 10.806L13.0067 11.0166ZM9.56712 29.7888L11.0669 29.816L9.56712 29.7888ZM16.4463 34.5784L17.625 35.5061L16.4463 34.5784ZM24.7013 20.0255L23.2455 19.6642L24.7013 20.0255ZM19.8859 34.5784L20.1693 33.1054L19.8859 34.5784ZM32.2685 22.1045L30.9851 21.3279L30.9734 21.3473L30.9623 21.3669L32.2685 22.1045ZM34.3322 17.2535L35.7924 17.5968L34.3322 17.2535ZM30.2047 15.8675L31.6898 16.0781L30.2047 15.8675ZM35.0201 24.1835L33.9557 25.2403L33.9557 25.2403L35.0201 24.1835ZM37.0839 31.8064L38.5658 32.0387V32.0387L37.0839 31.8064ZM33.6443 34.5784L33.4168 33.0957C33.3319 33.1087 33.2483 33.129 33.1668 33.1564L33.6443 34.5784ZM40.5235 22.1045L41.6328 23.1142V23.1142L40.5235 22.1045ZM45.3389 15.1745L43.8396 15.2175V15.2175L45.3389 15.1745ZM45.3389 30.4204L43.8465 30.5706L45.3389 30.4204ZM43.9631 34.5784L44.8493 35.7886C44.9173 35.7388 44.981 35.6833 45.0397 35.6229L43.9631 34.5784ZM41.8993 34.5784L40.845 35.6453L41.8993 34.5784ZM50.1544 22.1045L48.7603 21.5509V21.5509L50.1544 22.1045ZM48.7785 31.8064L49.8657 30.773L48.7785 31.8064ZM51.5302 33.1924L51.598 34.6908L51.5302 33.1924ZM55.6577 22.1045L54.3871 21.3072L55.6577 22.1045ZM61.1611 17.9154L60.8593 19.3847L61.1611 17.9154ZM59.0972 23.3765C58.2688 23.3765 57.5973 24.0481 57.5973 24.8765C57.5974 25.705 58.269 26.3765 59.0974 26.3765L59.0972 23.3765ZM57.7215 33.2538L58.0812 31.7976L57.7215 33.2538ZM65.2886 31.8064L65.0832 30.3205H65.0832L65.2886 31.8064ZM69.416 31.1748L68.9148 29.7611L69.416 31.1748ZM74.1394 23.4597L72.6835 23.0984V23.0984L74.1394 23.4597ZM73.4515 19.9947L73.929 18.5728L73.4515 19.9947ZM69.4161 20.0255L70.046 21.3868L69.4161 20.0255ZM64.6007 29.0344L63.2257 29.6339V29.6339L64.6007 29.0344ZM72.8558 30.3893L71.4339 30.8669L72.8558 30.3893ZM78.3591 31.7752L77.7356 30.411L77.7356 30.411L78.3591 31.7752ZM83.1744 36.7188L82.4364 38.0246L83.1744 36.7188ZM90.0538 30.3893L88.7102 29.7224L88.5325 30.0803L88.5565 30.4791L90.0538 30.3893ZM92.8054 4.08665L94.2732 4.39592V4.39592L92.8054 4.08665ZM85.9263 27.6167L87.1136 28.5333L85.9263 27.6167ZM81.1108 28.4028L79.6507 28.0592L79.6301 28.1469L79.6201 28.2365L81.1108 28.4028ZM90.7417 45.6345L89.3942 46.2935V46.2935L90.7417 45.6345ZM92.1174 27.0169L92.7136 25.6404L90.695 24.7661L90.6183 26.9646L92.1174 27.0169ZM98.9966 28.4029L99.227 29.8851L98.9966 28.4029ZM107.94 22.7657L109.423 22.5431V22.5431L107.94 22.7657ZM99.6846 21.4115L100.763 22.4541V22.4541L99.6846 21.4115ZM98.9967 32.4676L97.9138 33.5056L97.9138 33.5056L98.9967 32.4676ZM102.436 33.8536L102.342 35.3507L102.436 33.8536ZM110.003 24.8447L111.43 24.3823V24.3822L110.003 24.8447ZM107.252 23.5519L105.804 23.1599L105.804 23.1599L107.252 23.5519ZM111.379 24.8447L110.982 23.3983L111.379 24.8447ZM115.507 22.8589L116.85 23.5257L115.507 22.8589ZM116.195 5.47264L115.717 6.89461L116.195 5.47264ZM111.379 13.7886L112.875 13.9028V13.9028L111.379 13.7886ZM116.883 30.3887L117.305 28.9492L116.883 30.3887ZM120.322 29.6957L121.257 30.8691L121.362 30.7853L121.451 30.6841L120.322 29.6957ZM126.514 20.6868L127.911 21.2318L127.911 21.2318L126.514 20.6868ZM127.201 12.4026L125.745 12.7637L125.746 12.7639L127.201 12.4026ZM127.193 12.3703L128.649 12.0092L128.649 12.0091L127.193 12.3703ZM125.826 10.3236L125.11 11.6421L125.826 10.3236ZM120.322 19.394L121.819 19.4939V19.4939L120.322 19.394ZM122.386 29.7888L123.611 28.9233L123.181 28.3149L122.437 28.2897L122.386 29.7888ZM125.138 31.7747L124.565 33.1611L125.138 31.7747ZM131.329 29.7888L132.292 30.9387L132.349 30.8909L132.401 30.8378L131.329 29.7888ZM136.144 22.7975L134.688 22.4362L136.144 22.7975ZM135.456 17.9465L136.544 16.9131V16.9131L135.456 17.9465ZM129.953 24.2449L128.467 24.0388V24.0388L129.953 24.2449ZM132.705 32.2458L132.357 33.705L132.705 32.2458ZM138.208 29.7888L139.247 30.8706V30.8706L138.208 29.7888ZM141.648 21.4115L140.304 20.7446V20.7446L141.648 21.4115ZM140.96 32.2458L142.159 31.3443V31.3443L140.96 32.2458ZM143.712 33.2538L144.43 34.5704V34.5704L143.712 33.2538ZM149.903 21.4115L148.838 20.3547L149.903 21.4115ZM148.955 32.2458L147.991 33.3951V33.3951L148.955 32.2458ZM158.158 33.8536L157.862 32.3832L158.158 33.8536ZM165.037 29.0027L165.962 30.1834L166.102 30.0742L166.212 29.9355L165.037 29.0027ZM163.661 22.1045L162.72 23.2724V23.2724L163.661 22.1045ZM158.846 21.4115L158.293 20.0171L158.846 21.4115ZM166.413 8.24461L167.293 9.45885V9.45885L166.413 8.24461ZM168.477 31.7747L167.595 32.9886V32.9886L168.477 31.7747ZM171.228 33.2538L171.484 31.7759L171.228 33.2538ZM176.044 31.1748L176.902 32.4052V32.4052L176.044 31.1748ZM179.483 24.1835L180.98 24.2868L179.483 24.1835ZM176.732 18.6395L177.209 17.2175V17.2175L176.732 18.6395ZM171.54 25.0073L170.042 24.9498V24.9498L171.54 25.0073ZM176.044 33.2538L175.858 34.7423H175.858L176.044 33.2538ZM190.49 24.1835L191.689 25.0844V25.0844L190.49 24.1835ZM187.738 17.2535L186.744 18.3768V18.3768L187.738 17.2535ZM184.987 21.3798L186.41 21.8527L186.41 21.8526L184.987 21.3798ZM187.05 29.7888L188.214 28.8423L188.214 28.8423L187.05 29.7888ZM193.242 33.2538L192.85 34.7019H192.85L193.242 33.2538ZM208.029 30.8805C208.632 30.3123 208.66 29.363 208.092 28.7601C207.523 28.1572 206.574 28.129 205.971 28.6972L208.029 30.8805ZM10.255 62.9911L11.7423 63.1862L10.255 62.9911ZM53.0302 17.9388C53.0302 17.1104 52.3586 16.4388 51.5302 16.4388C50.7018 16.4388 50.0302 17.1104 50.0302 17.9388L53.0302 17.9388ZM50.0302 18.6318C50.0302 19.4603 50.7018 20.1318 51.5302 20.1318C52.3586 20.1318 53.0302 19.4603 53.0302 18.6318L50.0302 18.6318ZM13.0067 4.6654C12.1783 4.6654 11.5067 5.33698 11.5067 6.1654C11.5067 6.99383 12.1783 7.6654 13.0067 7.6654L13.0067 4.6654ZM13.6946 7.6654C14.5231 7.6654 15.1946 6.99383 15.1946 6.1654C15.1946 5.33698 14.5231 4.6654 13.6946 4.6654L13.6946 7.6654ZM2 31.8064C3.25916 32.6216 3.25921 32.6215 3.25929 32.6214C3.25934 32.6213 3.25944 32.6211 3.25955 32.621C3.25977 32.6206 3.26008 32.6201 3.26047 32.6195C3.26126 32.6183 3.2624 32.6166 3.26388 32.6143C3.26684 32.6097 3.27119 32.603 3.27688 32.5941C3.28827 32.5765 3.30504 32.5505 3.32696 32.5164C3.3708 32.4483 3.43519 32.3481 3.5181 32.2185C3.6839 31.9592 3.92382 31.5824 4.22149 31.1101C4.81671 30.1658 5.64358 28.8387 6.57113 27.3062C8.42051 24.2506 10.6919 20.3428 12.3206 17.0186L9.62663 15.6987C8.05817 18.8998 5.84274 22.7158 4.00461 25.7528C3.0884 27.2666 2.27134 28.5779 1.68356 29.5105C1.38974 29.9766 1.15339 30.3478 0.990807 30.602C0.90952 30.7291 0.846687 30.827 0.804343 30.8927C0.783172 30.9256 0.767125 30.9505 0.756456 30.967C0.751122 30.9753 0.747132 30.9815 0.744519 30.9855C0.743213 30.9875 0.74225 30.989 0.741636 30.99C0.741329 30.9905 0.741109 30.9908 0.740976 30.991C0.74091 30.9911 0.740877 30.9911 0.740843 30.9912C0.740832 30.9912 0.740842 30.9912 2 31.8064ZM12.3206 17.0186C13.3879 14.8404 14.2807 12.7159 14.4919 11.2272L11.5216 10.806C11.3862 11.7603 10.7114 13.4848 9.62663 15.6987L12.3206 17.0186ZM14.4919 11.2272C14.549 10.824 14.5848 10.4631 14.5881 10.1644C14.5897 10.0185 14.5845 9.83979 14.5543 9.65698C14.5363 9.5484 14.4669 9.11752 14.1206 8.74942C13.9049 8.52011 13.5721 8.3084 13.1396 8.26609C12.735 8.22652 12.4152 8.35235 12.2261 8.45693C11.8919 8.64174 11.6976 8.90692 11.6288 9.00309C11.4517 9.2509 11.3069 9.55772 11.1922 9.82961C10.7133 10.9646 10.0749 13.1682 9.50206 16.068L12.4452 16.6493C13.0033 13.8243 13.5947 11.8528 13.9562 10.9959C14.0516 10.7698 14.0927 10.7151 14.0693 10.7478C14.0586 10.7628 14.029 10.8029 13.9795 10.8539C13.9352 10.8995 13.8354 10.9951 13.6779 11.0822C13.5188 11.1702 13.2267 11.2889 12.8475 11.2518C12.4404 11.212 12.1306 11.0124 11.9355 10.805C11.7614 10.6199 11.6824 10.4366 11.6497 10.3489C11.6136 10.2522 11.5997 10.178 11.5945 10.147C11.5847 10.0872 11.589 10.0719 11.5883 10.131C11.5871 10.242 11.571 10.4572 11.5216 10.806L14.4919 11.2272ZM9.50206 16.068C8.79399 19.6525 8.16422 24.412 8.06736 29.7617L11.0669 29.816C11.1602 24.6622 11.7676 20.0798 12.4452 16.6493L9.50206 16.068ZM6.81544 70.5C6.89813 70.5 6.9373 70.5518 6.883 70.4957C6.78599 70.3954 6.57631 70.1018 6.35468 69.3964C5.90973 67.9804 5.56376 65.3965 5.56376 60.9121L2.56376 60.9121C2.56376 65.4677 2.90571 68.4278 3.49264 70.2957C3.78694 71.2323 4.1792 72.0156 4.72711 72.5819C5.31774 73.1922 6.04482 73.5 6.81544 73.5L6.81544 70.5ZM5.56376 60.9121C5.56376 58.6857 6.22429 56.0318 7.31117 53.2114C8.39105 50.4092 9.85419 47.5378 11.3731 44.9041L8.77439 43.4053C7.20731 46.1224 5.66544 49.1391 4.51184 52.1326C3.36522 55.108 2.56376 58.1574 2.56376 60.9121L5.56376 60.9121ZM11.3731 44.9041C13.8496 40.6103 16.431 37.0231 17.625 35.5061L15.2676 33.6506C13.9906 35.273 11.3273 38.9789 8.77439 43.4053L11.3731 44.9041ZM26.1572 20.3868C26.7026 18.189 26.7529 16.3415 26.3542 14.9508C25.9602 13.5767 24.9608 12.2886 23.3255 12.2886L23.3255 15.2886C23.0661 15.2886 23.2651 15.0618 23.4703 15.7776C23.6708 16.4769 23.7211 17.7478 23.2455 19.6642L26.1572 20.3868ZM23.3255 12.2886C20.7753 12.2886 18.8371 14.2986 17.6455 16.334C16.4044 18.4541 15.6342 21.1389 15.6342 23.4902L18.6342 23.4902C18.6342 21.7148 19.2399 19.5487 20.2345 17.8496C21.2787 16.0659 22.4361 15.2886 23.3255 15.2886L23.3255 12.2886ZM17.625 35.5061C18.1379 34.8544 18.3969 34.5654 18.5055 34.4592C18.5285 34.4366 18.5264 34.4407 18.5039 34.4585C18.4927 34.4674 18.4056 34.5377 18.2615 34.6024C18.1689 34.644 17.7064 34.8457 17.1416 34.6241C16.468 34.3598 16.278 33.767 16.2335 33.5354C16.1896 33.3065 16.2149 33.1295 16.2206 33.0889C16.2296 33.0247 16.2412 32.9805 16.2437 32.9708C16.247 32.9582 16.2493 32.951 16.2447 32.9662C16.2437 32.9696 16.2389 32.9856 16.2345 33.0006C16.2313 33.0114 16.2193 33.0523 16.208 33.1024C16.2024 33.1268 16.1911 33.1787 16.1825 33.2449C16.1783 33.2767 16.1512 33.464 16.1915 33.6976C16.2114 33.8129 16.2708 34.0863 16.4835 34.3612C16.7446 34.6989 17.1548 34.9282 17.6229 34.9431C18.0055 34.9552 18.2838 34.8191 18.3983 34.7557C18.5298 34.6828 18.622 34.6057 18.6685 34.5644C18.7623 34.4811 18.8246 34.4042 18.846 34.3776C18.8749 34.3415 18.8968 34.3108 18.9096 34.2925C18.9351 34.256 18.9555 34.2237 18.9666 34.206C19.0061 34.1424 19.0619 34.0456 19.1227 33.9398L16.5216 32.445C16.4882 32.5032 16.4635 32.546 16.445 32.5777C16.4247 32.6124 16.4188 32.6221 16.4203 32.6196C16.4204 32.6195 16.432 32.6007 16.4506 32.574C16.46 32.5606 16.479 32.5339 16.5053 32.501C16.5242 32.4775 16.5844 32.4029 16.6765 32.3211C16.7222 32.2806 16.8136 32.204 16.9445 32.1315C17.0584 32.0684 17.3361 31.9325 17.7182 31.9446C18.1859 31.9595 18.5957 32.1886 18.8565 32.5259C19.0689 32.8005 19.1281 33.0733 19.1479 33.1879C19.1879 33.42 19.1609 33.6052 19.1571 33.6342C19.1488 33.6977 19.1381 33.7463 19.1335 33.7668C19.1204 33.8246 19.1027 33.8797 19.1165 33.8338C19.1208 33.8196 19.1335 33.778 19.146 33.73C19.1578 33.6849 19.1777 33.604 19.1914 33.506C19.2019 33.4315 19.2284 33.2235 19.1798 32.97C19.1306 32.7139 18.93 32.1031 18.2372 31.8313C17.6533 31.6023 17.1633 31.8069 17.0323 31.8658C16.8498 31.9477 16.7134 32.0496 16.6395 32.1082C16.5543 32.1758 16.4761 32.2477 16.4073 32.315C16.1483 32.5684 15.7866 32.9913 15.2676 33.6506L17.625 35.5061ZM18.6958 34.4117C19.4072 33.902 20.1214 33.0872 20.7866 32.1741C21.4703 31.2355 22.1728 30.0941 22.8427 28.8404C24.1796 26.3384 25.4341 23.3004 26.1572 20.3868L23.2455 19.6642C22.5927 22.2946 21.4396 25.1007 20.1967 27.4265C19.5768 28.5867 18.9464 29.6051 18.3618 30.4077C17.7586 31.2357 17.269 31.7435 16.9486 31.973L18.6958 34.4117ZM15.6342 23.4902C15.6342 26.6638 15.8093 29.1415 15.9863 30.836C16.0748 31.6833 16.1639 32.3349 16.2319 32.7799C16.2658 33.0024 16.2945 33.1733 16.3153 33.2912C16.3256 33.3501 16.334 33.3958 16.3401 33.4281C16.3431 33.4442 16.3455 33.457 16.3473 33.4664C16.3482 33.4711 16.349 33.4749 16.3496 33.478C16.3499 33.4795 16.3501 33.4808 16.3503 33.4818C16.3505 33.4824 16.3506 33.4829 16.3506 33.4833C16.3507 33.4835 16.3507 33.4838 16.3508 33.4839C16.3508 33.4842 16.3509 33.4845 17.8222 33.1924C19.2934 32.9003 19.2935 32.9005 19.2935 32.9007C19.2935 32.9008 19.2936 32.901 19.2936 32.9011C19.2936 32.9013 19.2937 32.9015 19.2937 32.9016C19.2938 32.9019 19.2938 32.9019 19.2937 32.9017C19.2936 32.9013 19.2934 32.9001 19.293 32.8981C19.2922 32.894 19.2908 32.8866 19.2888 32.8758C19.2848 32.8543 19.2784 32.8194 19.2699 32.7714C19.253 32.6754 19.228 32.5268 19.1975 32.327C19.1364 31.9274 19.0535 31.3229 18.9701 30.5243C18.8032 28.927 18.6342 26.5536 18.6342 23.4902L15.6342 23.4902ZM17.8222 33.1924C16.5352 33.9629 16.5355 33.9634 16.5358 33.9639C16.5359 33.9641 16.5362 33.9646 16.5364 33.965C16.5369 33.9657 16.5373 33.9664 16.5378 33.9672C16.5387 33.9687 16.5396 33.9703 16.5406 33.9719C16.5426 33.9752 16.5448 33.9788 16.5472 33.9827C16.552 33.9904 16.5575 33.9993 16.5638 34.0092C16.5765 34.0291 16.5922 34.0533 16.6111 34.0812C16.6487 34.1369 16.6994 34.2082 16.7632 34.2905C16.8902 34.4542 17.074 34.6674 17.3178 34.8908C17.8029 35.3352 18.5613 35.851 19.6025 36.0513L20.1693 33.1054C19.8158 33.0374 19.5424 32.8601 19.3443 32.6787C19.2465 32.5891 19.1758 32.5061 19.1338 32.4519C19.1131 32.4253 19.1006 32.4071 19.0962 32.4007C19.0941 32.3975 19.094 32.3974 19.0962 32.4007C19.0972 32.4024 19.0989 32.405 19.101 32.4085C19.1021 32.4102 19.1033 32.4122 19.1047 32.4145C19.1053 32.4156 19.1061 32.4167 19.1068 32.418C19.1072 32.4186 19.1076 32.4192 19.1079 32.4199C19.1081 32.4202 19.1084 32.4207 19.1085 32.4209C19.1088 32.4214 19.1091 32.4219 17.8222 33.1924ZM19.6025 36.0513C21.5104 36.4185 23.3604 35.3519 24.7978 34.1846C26.3161 32.9517 27.7958 31.2586 29.0709 29.6048C30.3556 27.9386 31.4791 26.2508 32.2789 24.9851C32.6798 24.3507 33.0015 23.8187 33.224 23.4438C33.3352 23.2563 33.4217 23.1079 33.481 23.0054C33.5106 22.9541 33.5334 22.9143 33.5491 22.8868C33.557 22.873 33.5631 22.8624 33.5673 22.8549C33.5695 22.8511 33.5711 22.8482 33.5723 22.846C33.573 22.845 33.5734 22.8441 33.5738 22.8434C33.574 22.8431 33.5742 22.8427 33.5743 22.8426C33.5745 22.8423 33.5746 22.842 32.2685 22.1045C30.9623 21.3669 30.9624 21.3668 30.9625 21.3667C30.9624 21.3667 30.9625 21.3667 30.9624 21.3668C30.9623 21.3669 30.9621 21.3673 30.9618 21.3678C30.9612 21.3689 30.9601 21.3708 30.9586 21.3735C30.9555 21.3789 30.9507 21.3874 30.9441 21.399C30.9309 21.4221 30.9106 21.4575 30.8836 21.5041C30.8297 21.5974 30.7489 21.736 30.6439 21.9131C30.4336 22.2674 30.1266 22.7752 29.7428 23.3826C28.9733 24.6004 27.9041 26.2049 26.6951 27.773C25.4764 29.3535 24.1615 30.8368 22.9066 31.8558C21.5708 32.9405 20.6691 33.2015 20.1693 33.1054L19.6025 36.0513ZM32.2685 22.1045C33.5518 22.881 33.5518 22.881 33.5518 22.881C33.5519 22.881 33.5519 22.8809 33.5519 22.8809C33.5519 22.8809 33.5519 22.8808 33.552 22.8808C33.552 22.8807 33.5521 22.8806 33.5521 22.8805C33.5522 22.8803 33.5523 22.8801 33.5525 22.8799C33.5527 22.8795 33.5531 22.879 33.5534 22.8784C33.5541 22.8772 33.555 22.8757 33.5561 22.874C33.5582 22.8705 33.561 22.8658 33.5644 22.8601C33.5713 22.8485 33.5808 22.8325 33.5928 22.8121C33.6168 22.7715 33.6505 22.7136 33.6925 22.6403L31.0884 21.1508C31.0532 21.2123 31.026 21.2589 31.0082 21.289C30.9994 21.304 30.9929 21.315 30.989 21.3215C30.987 21.3248 30.9857 21.327 30.985 21.3281C30.9847 21.3286 30.9846 21.3289 30.9846 21.3289C30.9846 21.3288 30.9846 21.3288 30.9847 21.3286C30.9848 21.3285 30.9848 21.3284 30.9849 21.3283C30.9849 21.3283 30.985 21.3282 30.985 21.3281C30.985 21.3281 30.985 21.3281 30.9851 21.328C30.9851 21.328 30.9851 21.328 30.9851 21.328C30.9851 21.328 30.9851 21.3279 32.2685 22.1045ZM33.6925 22.6403C34.0712 21.9782 35.2809 19.7726 35.7924 17.5968L32.872 16.9102C32.4669 18.6333 31.45 20.5185 31.0884 21.1508L33.6925 22.6403ZM35.7924 17.5968C36.1074 16.257 36.1519 14.9175 35.7957 13.822C35.6142 13.2637 35.3064 12.7048 34.8105 12.2766C34.294 11.8307 33.6509 11.5956 32.9564 11.5956L32.9564 14.5956C32.9636 14.5956 32.9468 14.5963 32.9166 14.5852C32.886 14.574 32.8626 14.5583 32.8499 14.5473C32.8279 14.5283 32.8826 14.5646 32.9427 14.7495C33.0698 15.1405 33.1143 15.8799 32.872 16.9102L35.7924 17.5968ZM32.9564 11.5956C32.024 11.5956 31.0075 11.8295 30.1718 12.5825C29.3464 13.3262 28.8984 14.3958 28.7196 15.6569L31.6898 16.0781C31.8077 15.2469 32.0476 14.9305 32.1799 14.8113C32.3019 14.7013 32.5129 14.5956 32.9564 14.5956L32.9564 11.5956ZM28.7196 15.6569C28.4692 17.4222 28.6649 18.8806 29.2097 20.1285C29.7465 21.3582 30.572 22.2656 31.3783 23.0027L33.4025 20.7884C32.7417 20.1844 32.257 19.6108 31.9591 18.9282C31.6691 18.2639 31.5054 17.3788 31.6898 16.0781L28.7196 15.6569ZM31.3783 23.0027C31.8403 23.4249 32.3341 23.8243 32.763 24.1795C33.2081 24.5483 33.6034 24.8854 33.9557 25.2403L36.0846 23.1266C35.6217 22.6603 35.1292 22.244 34.6768 21.8692C34.2081 21.481 33.7947 21.1469 33.4025 20.7884L31.3783 23.0027ZM33.9557 25.2403C34.2348 25.5214 34.5567 25.9845 34.8519 26.6156L37.5693 25.3446C37.1729 24.4971 36.672 23.7182 36.0846 23.1266L33.9557 25.2403ZM34.8519 26.6156C35.4981 27.9972 35.8698 29.8653 35.602 31.5741L38.5658 32.0387C38.9399 29.652 38.4282 27.181 37.5693 25.3446L34.8519 26.6156ZM35.602 31.5741C35.5321 32.0202 35.1928 32.3972 34.5606 32.7118C34.2647 32.8591 33.9661 32.9588 33.7366 33.0214C33.6241 33.0521 33.5338 33.0723 33.476 33.0841C33.4473 33.09 33.427 33.0938 33.4166 33.0956C33.4115 33.0965 33.4088 33.097 33.4087 33.097C33.4087 33.097 33.4094 33.0969 33.4107 33.0967C33.4114 33.0966 33.4122 33.0964 33.4132 33.0963C33.4138 33.0962 33.4143 33.0961 33.4149 33.096C33.4152 33.096 33.4157 33.0959 33.4158 33.0959C33.4163 33.0958 33.4168 33.0957 33.6443 34.5784C33.8718 36.061 33.8723 36.0609 33.8728 36.0608C33.873 36.0608 33.8736 36.0607 33.874 36.0607C33.8748 36.0605 33.8756 36.0604 33.8765 36.0603C33.8783 36.06 33.8802 36.0597 33.8824 36.0594C33.8867 36.0587 33.8917 36.0578 33.8976 36.0569C33.9092 36.055 33.9238 36.0525 33.9413 36.0494C33.9762 36.0432 34.0225 36.0345 34.0786 36.023C34.1907 36 34.3437 35.9654 34.5255 35.9158C34.8846 35.8179 35.3784 35.6558 35.8973 35.3976C36.8947 34.9012 38.2753 33.8921 38.5658 32.0387L35.602 31.5741ZM33.6443 34.5784C33.1668 33.1564 33.1674 33.1562 33.1681 33.156C33.1682 33.1559 33.1689 33.1557 33.1692 33.1556C33.17 33.1553 33.1708 33.1551 33.1715 33.1548C33.173 33.1543 33.1743 33.1539 33.1756 33.1535C33.1781 33.1527 33.1801 33.152 33.1818 33.1515C33.1851 33.1504 33.1869 33.1499 33.1872 33.1498C33.1877 33.1496 33.1827 33.1511 33.173 33.1537C33.1528 33.159 33.1175 33.1675 33.0735 33.1749C32.9706 33.1921 32.8939 33.1912 32.8608 33.1857C32.8404 33.1823 32.9463 33.1975 33.0454 33.314C33.1456 33.4317 33.0805 33.4666 33.0805 33.1924L30.0805 33.1924C30.0805 33.9576 30.2735 34.6856 30.7606 35.258C31.2466 35.8293 31.8685 36.0611 32.3641 36.1443C32.8469 36.2253 33.2861 36.1811 33.5702 36.1334C33.7196 36.1084 33.8456 36.0789 33.9383 36.0544C33.985 36.0421 34.0243 36.0308 34.0551 36.0215C34.0705 36.0168 34.0838 36.0127 34.095 36.0091C34.1005 36.0073 34.1056 36.0057 34.11 36.0042C34.1123 36.0035 34.1144 36.0028 34.1163 36.0022C34.1173 36.0018 34.1183 36.0015 34.1192 36.0012C34.1196 36.0011 34.1203 36.0008 34.1205 36.0008C34.1212 36.0005 34.1218 36.0003 33.6443 34.5784ZM33.0805 33.1924C33.0805 30.8833 34.631 29.2601 37.1738 27.13L35.2474 24.8303C32.8188 26.8647 30.0805 29.3187 30.0805 33.1924L33.0805 33.1924ZM37.1738 27.13C38.5613 25.9677 40.2264 24.6593 41.6328 23.1142L39.4142 21.0948C38.1835 22.4469 36.7397 23.5802 35.2474 24.8303L37.1738 27.13ZM41.6328 23.1142C41.919 22.7997 42.2388 22.481 42.5878 22.1435L40.5025 19.9868C40.1384 20.3388 39.7648 20.7096 39.4142 21.0948L41.6328 23.1142ZM42.5878 22.1435C43.4312 21.328 44.5158 20.3474 45.3351 19.2785C46.1801 18.1759 46.8863 16.807 46.8383 15.1316L43.8396 15.2175C43.8603 15.9433 43.5719 16.6473 42.954 17.4535C42.3103 18.2934 41.4636 19.0575 40.5025 19.9868L42.5878 22.1435ZM46.8383 15.1316C46.8305 14.857 46.8345 13.949 46.6041 13.1249C46.4864 12.7038 46.2733 12.166 45.8525 11.715C45.3883 11.2173 44.7393 10.9026 43.9631 10.9026L43.9631 13.9026C43.9411 13.9026 43.8822 13.8972 43.8081 13.8643C43.7351 13.832 43.6853 13.7898 43.6589 13.7615C43.622 13.7219 43.6631 13.7472 43.7149 13.9325C43.8235 14.3211 43.8276 14.7991 43.8396 15.2175L46.8383 15.1316ZM43.9631 10.9026C42.5815 10.9026 41.2196 11.4027 40.1855 12.2343C39.1484 13.0681 38.3356 14.3323 38.3356 15.8675L41.3356 15.8675C41.3356 15.4513 41.5546 14.9829 42.0654 14.5722C42.5791 14.1592 43.281 13.9026 43.9631 13.9026L43.9631 10.9026ZM38.3356 15.8675C38.3356 18.2006 39.2633 20.0983 40.2433 21.8104L42.8469 20.32C41.9176 18.6966 41.3356 17.3758 41.3356 15.8675L38.3356 15.8675ZM40.2433 21.8104C41.1437 23.3832 42.0541 24.7538 42.7805 26.4651L45.542 25.2929C44.723 23.3633 43.6339 21.6948 42.8469 20.32L40.2433 21.8104ZM42.7805 26.4651C43.2925 27.6714 43.689 29.0057 43.8465 30.5706L46.8314 30.2702C46.6391 28.3595 46.1526 26.7313 45.542 25.2929L42.7805 26.4651ZM43.8465 30.5706C43.9345 31.4457 43.6945 32.1928 43.4109 32.744C43.2699 33.018 43.1239 33.2317 43.0179 33.3715C42.9653 33.4409 42.9238 33.4905 42.8995 33.5184C42.8874 33.5324 42.8798 33.5408 42.8773 33.5435C42.8761 33.5448 42.8761 33.5447 42.8777 33.5431C42.8784 33.5423 42.8795 33.5411 42.881 33.5396C42.8817 33.5388 42.8825 33.538 42.8835 33.537C42.8839 33.5365 42.8844 33.536 42.8849 33.5355C42.8852 33.5352 42.8856 33.5348 42.8857 33.5347C42.8861 33.5343 42.8865 33.5339 43.9631 34.5784C45.0397 35.6229 45.0401 35.6224 45.0405 35.622C45.0407 35.6218 45.0411 35.6214 45.0414 35.6211C45.042 35.6204 45.0427 35.6198 45.0433 35.6191C45.0446 35.6177 45.0461 35.6162 45.0476 35.6147C45.0506 35.6115 45.054 35.6079 45.0579 35.6038C45.0655 35.5958 45.0747 35.5859 45.0853 35.5744C45.1065 35.5513 45.1335 35.5213 45.1654 35.4846C45.2291 35.4112 45.3126 35.3105 45.4085 35.184C45.5995 34.9321 45.8443 34.5717 46.0785 34.1165C46.5453 33.2093 46.9931 31.8775 46.8314 30.2702L43.8465 30.5706ZM43.9631 34.5784C43.0769 33.3682 43.0773 33.3678 43.0778 33.3675C43.078 33.3673 43.0785 33.367 43.0788 33.3668C43.0794 33.3663 43.08 33.3659 43.0806 33.3654C43.0818 33.3646 43.0829 33.3638 43.084 33.363C43.0861 33.3614 43.088 33.3601 43.0897 33.3589C43.093 33.3565 43.0954 33.3548 43.097 33.3538C43.1001 33.3516 43.0999 33.3518 43.0967 33.3539C43.09 33.3582 43.073 33.3689 43.0482 33.3823C42.9936 33.412 42.9302 33.4396 42.8735 33.4547C42.8155 33.4702 42.8118 33.4602 42.8487 33.4666C42.8699 33.4703 42.8958 33.4781 42.9211 33.491C42.9468 33.5041 42.9573 33.515 42.9537 33.5114L40.845 35.6453C41.7952 36.5842 42.9368 36.543 43.6478 36.353C43.9973 36.2597 44.2851 36.1245 44.4801 36.0185C44.5802 35.9642 44.6627 35.9138 44.7242 35.874C44.7552 35.854 44.7813 35.8365 44.8022 35.822C44.8126 35.8148 44.8218 35.8083 44.8297 35.8027C44.8336 35.7999 44.8372 35.7973 44.8405 35.795C44.8421 35.7938 44.8437 35.7927 44.8452 35.7916C44.8459 35.7911 44.8466 35.7905 44.8473 35.79C44.8477 35.7898 44.8482 35.7894 44.8484 35.7893C44.8489 35.7889 44.8493 35.7886 43.9631 34.5784ZM42.9537 33.5114C42.3917 32.9561 42.2268 32.1873 42.6455 30.9595C43.0766 29.6953 44.0532 28.2505 45.2795 26.8787L43.043 24.8793C41.7001 26.3815 40.4243 28.1782 39.8061 29.9912C39.1755 31.8405 39.1643 33.9845 40.845 35.6453L42.9537 33.5114ZM45.2795 26.8787C46.6751 25.3177 48.2509 24.0094 49.3331 23.3336C49.5996 23.1672 49.8099 23.0558 49.9601 22.99C50.1426 22.91 50.1305 22.9444 49.9906 22.9489C49.9102 22.9515 49.694 22.9472 49.4403 22.8166C49.1473 22.6658 48.9262 22.4081 48.8186 22.1111C48.6556 21.6616 48.8331 21.3674 48.7603 21.5509L51.5485 22.658C51.6594 22.3788 51.8795 21.7524 51.639 21.0888C51.4926 20.6848 51.2026 20.3496 50.8133 20.1492C50.4633 19.9691 50.1233 19.9431 49.8944 19.9505C49.4573 19.9645 49.0488 20.114 48.7563 20.2421C48.4316 20.3843 48.0886 20.5739 47.7441 20.789C46.3828 21.6391 44.5946 23.1437 43.043 24.8793L45.2795 26.8787ZM48.7603 21.5509C48.7874 21.4826 48.7809 21.5192 48.5943 21.782C48.5184 21.8888 48.4315 22.0079 48.3281 22.1498C48.2269 22.2887 48.1135 22.4447 47.9946 22.6121C47.5224 23.277 46.9276 24.1716 46.4758 25.2047C46.0239 26.2381 45.6826 27.4823 45.7961 28.8315C45.9124 30.213 46.496 31.5823 47.6913 32.8398L49.8657 30.773C49.1116 29.9796 48.8411 29.2403 48.7855 28.5799C48.7273 27.8874 48.8965 27.1568 49.2244 26.4068C49.5525 25.6566 50.007 24.9597 50.4405 24.3492C50.5481 24.1978 50.6521 24.0547 50.753 23.9162C50.8516 23.7808 50.9513 23.6442 51.0402 23.5191C51.1831 23.318 51.4185 22.9853 51.5485 22.658L48.7603 21.5509ZM47.6913 32.8398C48.456 33.6443 49.1487 34.1681 49.8623 34.4494C50.6134 34.7454 51.24 34.707 51.598 34.6908L51.4624 31.6939C51.1325 31.7088 51.0711 31.7012 50.9624 31.6583C50.8161 31.6007 50.4769 31.4159 49.8657 30.773L47.6913 32.8398ZM51.598 34.6908C52.4804 34.6509 53.5076 34.5244 54.4059 34.0683C55.3901 33.5686 56.1398 32.7123 56.4313 31.4512L53.5083 30.7756C53.4264 31.1301 53.2789 31.276 53.0478 31.3933C52.7309 31.5542 52.225 31.6594 51.4624 31.6939L51.598 34.6908ZM56.173 30.2176C54.6983 28.2369 55.2583 25.5634 56.9283 22.9017L54.3871 21.3072C52.5648 24.2116 51.1138 28.4459 53.7667 32.0092L56.173 30.2176ZM56.9283 22.9017C57.5974 21.8354 58.2736 20.8239 59.0186 20.1291C59.7444 19.4522 60.3147 19.2729 60.8593 19.3847L61.4629 16.4461C59.5806 16.0595 58.0609 16.9201 56.9725 17.9351C55.9035 18.9322 55.0414 20.2645 54.3871 21.3072L56.9283 22.9017ZM60.8593 19.3847C61.4475 19.5055 61.6273 19.6279 61.6688 19.6663C61.6732 19.6703 61.6758 19.6706 61.6841 19.6927C61.6965 19.7254 61.7248 19.8224 61.7248 20.0255L64.7248 20.0255C64.7248 19.0496 64.4409 18.1429 63.7043 17.4625C63.0429 16.8516 62.1909 16.5956 61.4629 16.4461L60.8593 19.3847ZM61.7248 20.0255C61.7248 20.5406 61.5852 21.4724 61.1529 22.219C60.7704 22.8795 60.1912 23.3764 59.0972 23.3765L59.0974 26.3765C61.443 26.3763 62.9276 25.1407 63.749 23.7223C64.5205 22.39 64.7248 20.8964 64.7248 20.0255L61.7248 20.0255ZM53.7667 32.0092C54.4618 32.9428 55.4249 34.2317 57.3618 34.7101L58.0812 31.7976C57.2664 31.5963 56.8537 31.1319 56.173 30.2176L53.7667 32.0092ZM57.3618 34.7101C59.0257 35.121 60.6282 34.7288 61.9326 34.3224C63.369 33.8749 64.3949 33.4442 65.4941 33.2922L65.0832 30.3205C63.6574 30.5177 62.1374 31.1164 61.0403 31.4582C59.8112 31.8411 58.8926 31.998 58.0812 31.7976L57.3618 34.7101ZM65.4941 33.2922C66.3786 33.17 66.8043 33.1823 67.5077 33.1249C68.2086 33.0677 68.9026 32.9484 69.9173 32.5886L68.9148 29.7611C68.1556 30.0302 67.7174 30.0978 67.2639 30.1348C66.8127 30.1716 66.0617 30.1852 65.0832 30.3205L65.4941 33.2922ZM69.9173 32.5886C70.988 32.209 71.8498 31.5631 72.5406 30.7928L70.3072 28.7899C69.8917 29.2532 69.4351 29.5766 68.9148 29.7611L69.9173 32.5886ZM72.5406 30.7928C74.2834 28.8495 75.0698 25.9382 75.5952 23.821L72.6835 23.0984C72.1323 25.3199 71.4762 27.4863 70.3072 28.7899L72.5406 30.7928ZM75.5952 23.821C75.7919 23.0284 75.9458 22.5064 76.0715 22.0326C76.1301 21.8122 76.1871 21.5842 76.2247 21.3706C76.2608 21.1653 76.2967 20.8811 76.2597 20.5714C76.2181 20.2222 76.0859 19.8583 75.8151 19.5392C75.5696 19.2499 75.2832 19.0853 75.0843 18.9891C74.7591 18.8319 74.2603 18.684 73.929 18.5728L72.974 21.4167C73.0935 21.4569 73.2035 21.4927 73.3002 21.5243C73.3995 21.5566 73.4803 21.5829 73.5534 21.6074C73.626 21.6318 73.6791 21.6506 73.7197 21.666C73.7394 21.6735 73.7539 21.6793 73.7641 21.6837C73.7743 21.688 73.7787 21.6901 73.7784 21.69C73.7782 21.6899 73.7715 21.6866 73.76 21.6801C73.7485 21.6735 73.7306 21.6626 73.7082 21.6469C73.6631 21.6152 73.5966 21.5615 73.5276 21.4802C73.3677 21.2917 73.2993 21.0816 73.2809 20.9268C73.2671 20.8116 73.2856 20.7626 73.27 20.851C73.256 20.9309 73.2271 21.0551 73.172 21.2628C73.0704 21.6454 72.8856 22.2842 72.6835 23.0984L75.5952 23.821ZM73.929 18.5728C72.8747 18.2188 71.9971 17.9901 71.1377 18.012C70.2358 18.035 69.5088 18.3298 68.7862 18.6642L70.046 21.3868C70.6993 21.0845 70.9581 21.0175 71.214 21.011C71.5124 21.0034 71.9644 21.0777 72.974 21.4167L73.929 18.5728ZM68.7862 18.6642C66.8957 19.5389 65.1211 21.2094 63.9996 23.1106C62.8897 24.9923 62.2546 27.4067 63.2257 29.6339L65.9757 28.4349C65.5423 27.4409 65.7281 26.0851 66.5836 24.6348C67.4276 23.204 68.7629 21.9806 70.046 21.3868L68.7862 18.6642ZM63.2257 29.6339C63.666 30.6437 64.4108 31.2949 65.3032 31.6327C66.1321 31.9465 67.0121 31.9626 67.7604 31.9024C68.5175 31.8415 69.2883 31.687 69.9286 31.5578C70.6179 31.4187 71.1272 31.3161 71.5298 31.2876L71.318 28.2951C70.6784 28.3404 69.9501 28.493 69.3352 28.6171C68.6713 28.7511 68.0713 28.8677 67.5197 28.9121C66.9592 28.9572 66.5925 28.913 66.3653 28.827C66.2017 28.7651 66.0813 28.6772 65.9757 28.4349L63.2257 29.6339ZM71.5298 31.2876C71.6584 31.2785 71.7476 31.2796 71.8053 31.2843C71.8644 31.2891 71.8645 31.2957 71.8277 31.2822C71.7854 31.2667 71.6982 31.2257 71.6075 31.1365C71.5133 31.0439 71.4593 30.9427 71.4339 30.8669L74.2777 29.9116C74.0289 29.171 73.4858 28.6948 72.8601 28.4654C72.3177 28.2666 71.7524 28.2643 71.318 28.2951L71.5298 31.2876ZM71.4339 30.8669C71.9426 32.3813 73.1268 33.3498 74.5596 33.7044C75.946 34.0476 77.507 33.814 78.9827 33.1395L77.7356 30.411C76.7164 30.8768 75.8565 30.9349 75.2804 30.7923C74.7505 30.6612 74.4305 30.3665 74.2777 29.9116L71.4339 30.8669ZM78.9827 33.1395C80.3498 32.5146 81.4309 31.4444 82.2863 30.1788L79.8009 28.4988C79.1525 29.458 78.4588 30.0804 77.7356 30.411L78.9827 33.1395ZM82.2863 30.1788C82.4645 29.9152 82.6341 29.6415 82.7956 29.3592L80.1915 27.8696C80.0644 28.0919 79.9341 28.3017 79.8009 28.4988L82.2863 30.1788ZM82.7956 29.3592C84.2484 26.8194 85.1334 23.4269 85.6769 20.0033C86.225 16.551 86.4456 12.9336 86.4989 9.8589C86.5522 6.78787 86.4394 4.21214 86.3074 2.83232C86.2748 2.49136 86.2378 2.18801 86.1952 1.95748C86.1771 1.8594 86.1436 1.6917 86.082 1.52553C86.0632 1.47496 85.9778 1.2365 85.7735 1.00788C85.6659 0.88738 85.4152 0.64467 85.0018 0.543396C84.5168 0.424581 84.0743 0.562553 83.7708 0.776606C83.5154 0.956735 83.3806 1.17 83.3239 1.26906C83.2586 1.38328 83.22 1.48443 83.1988 1.54635C83.1563 1.66982 83.1347 1.77995 83.1234 1.84405C83.0994 1.98077 83.0861 2.12693 83.0774 2.25764C83.0591 2.52993 83.0504 2.8995 83.0504 3.36154L86.0504 3.36154C86.0504 2.92404 86.059 2.63179 86.0706 2.45827C86.0768 2.36608 86.0816 2.34335 86.0783 2.36247C86.0773 2.36776 86.0667 2.43191 86.0357 2.52189C86.0202 2.56706 85.9875 2.65458 85.9282 2.75826C85.8776 2.84677 85.7489 3.05257 85.4998 3.22826C85.2026 3.43788 84.7665 3.57446 84.288 3.45724C83.8811 3.35757 83.6371 3.11945 83.5362 3.00649C83.3455 2.79295 83.2739 2.58139 83.2694 2.56917C83.2362 2.47972 83.2326 2.4346 83.2451 2.50226C83.2637 2.60321 83.291 2.80396 83.321 3.11801C83.4397 4.35825 83.5512 6.81727 83.4994 9.80685C83.4475 12.7927 83.2334 16.2618 82.714 19.5329C82.1901 22.8328 81.3749 25.8008 80.1915 27.8696L82.7956 29.3592ZM82.4364 38.0246C83.58 38.671 84.8189 38.6348 85.8921 38.2846C86.948 37.94 87.9239 37.2735 88.7345 36.4966C90.301 34.9951 91.6507 32.6747 91.5623 30.4828L88.5647 30.6038C88.6055 31.6145 87.8828 33.1573 86.6586 34.3307C86.0738 34.8913 85.4747 35.2651 84.9614 35.4326C84.4655 35.5944 84.141 35.5421 83.9125 35.4129L82.4364 38.0246ZM91.5623 30.4827C91.5593 30.4089 91.5546 30.3346 91.5482 30.26L88.5593 30.5185C88.5617 30.5458 88.5635 30.5743 88.5647 30.6039L91.5623 30.4827ZM88.5565 30.4791C88.5598 30.5348 88.5632 30.5893 88.5668 30.6426L91.5602 30.444C91.5571 30.3973 91.5541 30.349 91.5511 30.2994L88.5565 30.4791ZM88.5668 30.6426C88.6088 31.2758 88.6692 31.833 88.7775 32.2308C88.807 32.339 88.8512 32.4784 88.9198 32.6234C88.9774 32.7448 89.1137 33.0055 89.3886 33.2271C89.7321 33.5038 90.2574 33.6794 90.8231 33.5078C91.2691 33.3724 91.5247 33.0807 91.6232 32.9567C91.83 32.6962 91.9406 32.4009 91.994 32.2501C92.0625 32.0564 92.1235 31.8382 92.1785 31.6144C92.2894 31.1638 92.4007 30.5902 92.5113 29.9347L89.5531 29.4354C89.4475 30.0612 89.3505 30.5517 89.2654 30.8976C89.2225 31.0719 89.1886 31.185 89.1658 31.2493C89.1279 31.3565 89.1507 31.246 89.2741 31.0907C89.3308 31.0193 89.5456 30.7603 89.952 30.637C90.478 30.4774 90.9647 30.6443 91.2708 30.891C91.5084 31.0824 91.6085 31.2915 91.631 31.3391C91.6647 31.4102 91.6751 31.4535 91.6721 31.4426C91.6507 31.3638 91.6021 31.0755 91.5602 30.444L88.5668 30.6426ZM92.5113 29.9347C93.1992 25.8583 94.0355 17.5546 94.505 11.2245C94.7392 8.06739 94.8877 5.32989 94.8748 3.83184C94.8716 3.46161 94.8585 3.11208 94.8238 2.83433C94.8084 2.71141 94.7779 2.5046 94.7017 2.29482C94.6668 2.19867 94.5812 1.98275 94.3956 1.76933C94.1886 1.53139 93.7443 1.18628 93.0985 1.24373C92.5458 1.2929 92.2121 1.61406 92.0958 1.73922C91.9574 1.8881 91.8726 2.03579 91.8286 2.11859C91.7367 2.2915 91.6725 2.47322 91.6281 2.61192C91.5337 2.90714 91.4377 3.30228 91.3376 3.77738L94.2732 4.39592C94.3676 3.9479 94.4385 3.67272 94.4854 3.52636C94.5117 3.44428 94.5117 3.46239 94.478 3.52587C94.4631 3.55395 94.4058 3.66046 94.2934 3.78134C94.2032 3.87849 93.8939 4.18481 93.3643 4.23193C92.7416 4.28733 92.3188 3.95296 92.132 3.73817C91.9665 3.5479 91.8996 3.36756 91.882 3.319C91.8404 3.20443 91.8388 3.14099 91.847 3.20656C91.8594 3.30582 91.872 3.51384 91.8749 3.85765C91.8866 5.21572 91.748 7.83791 91.5132 11.0026C91.045 17.3159 90.2166 25.5039 89.5531 29.4354L92.5113 29.9347ZM91.3376 3.77738C90.555 7.49141 89.7529 12.111 88.6791 16.4781C87.5944 20.8899 86.3141 24.6596 84.7389 26.7001L87.1136 28.5333C89.1232 25.9301 90.5166 21.5694 91.5923 17.1944C92.679 12.7748 93.524 7.9512 94.2732 4.39592L91.3376 3.77738ZM83.0504 3.36154C83.0504 8.44287 82.2088 14.6009 81.3527 19.5359C80.9264 21.9932 80.5 24.128 80.1804 25.6476C80.0206 26.4072 79.8876 27.0125 79.7949 27.4267C79.7485 27.6338 79.7122 27.7932 79.6876 27.9001C79.6753 27.9536 79.6659 27.994 79.6597 28.0207C79.6566 28.034 79.6543 28.044 79.6528 28.0504C79.652 28.0536 79.6515 28.056 79.6511 28.0574C79.6509 28.0582 79.6508 28.0587 79.6508 28.059C79.6507 28.0591 79.6507 28.0592 79.6507 28.0593C79.6507 28.0593 79.6507 28.0592 81.1108 28.4028C82.5709 28.7465 82.571 28.7463 82.571 28.7461C82.5711 28.7459 82.5711 28.7457 82.5712 28.7454C82.5713 28.7448 82.5715 28.7439 82.5718 28.7429C82.5723 28.7408 82.5729 28.7379 82.5738 28.734C82.5756 28.7263 82.5783 28.7152 82.5817 28.7005C82.5885 28.6713 82.5984 28.6283 82.6113 28.5722C82.6371 28.46 82.6747 28.2952 82.7224 28.0823C82.8177 27.6566 82.9534 27.0386 83.1161 26.2652C83.4414 24.7188 83.8749 22.5482 84.3085 20.0486C85.1723 15.0696 86.0504 8.70701 86.0504 3.36154L83.0504 3.36154ZM81.1108 28.4028C79.6201 28.2365 79.6201 28.2366 79.62 28.2367C79.62 28.2367 79.62 28.2368 79.62 28.2368C79.62 28.237 79.62 28.2371 79.62 28.2372C79.62 28.2374 79.6199 28.2377 79.6199 28.238C79.6198 28.2386 79.6198 28.2392 79.6197 28.24C79.6195 28.2415 79.6193 28.2433 79.6191 28.2455C79.6186 28.2499 79.618 28.2557 79.6172 28.2629C79.6157 28.2772 79.6137 28.297 79.6113 28.322C79.6064 28.3719 79.5998 28.4424 79.5924 28.5314C79.5777 28.7092 79.5596 28.9612 79.5453 29.2687L82.542 29.4089C82.5545 29.1416 82.57 28.9257 82.5822 28.7792C82.5882 28.706 82.5934 28.6504 82.5969 28.6145C82.5987 28.5966 82.6 28.5837 82.6008 28.5761C82.6012 28.5722 82.6015 28.5697 82.6016 28.5686C82.6017 28.568 82.6017 28.5677 82.6017 28.5678C82.6017 28.5679 82.6017 28.568 82.6017 28.5682C82.6017 28.5683 82.6016 28.5685 82.6016 28.5686C82.6016 28.5687 82.6016 28.5688 82.6016 28.5689C82.6016 28.5689 82.6016 28.569 82.6016 28.569C82.6016 28.5691 82.6016 28.5692 81.1108 28.4028ZM79.5453 29.2687C79.4985 30.2679 79.4856 31.9411 79.7907 33.5625C80.0769 35.0833 80.7337 37.0623 82.4364 38.0246L83.9125 35.4129C83.4532 35.1533 83 34.3951 82.739 33.0077C82.4969 31.7209 82.4996 30.3152 82.542 29.4089L79.5453 29.2687ZM84.7389 26.7001C84.2182 27.3746 83.7252 27.5177 83.3472 27.5378C82.8947 27.5618 82.4464 27.4086 82.1452 27.2634L80.8419 29.9655C81.3705 30.2204 82.3461 30.5951 83.5062 30.5335C84.7408 30.468 86.0492 29.9121 87.1136 28.5333L84.7389 26.7001ZM82.1452 27.2634C82.0647 27.2245 82.0045 27.191 81.9693 27.1704C81.9518 27.1601 81.9409 27.1534 81.9372 27.151C81.9354 27.1499 81.9354 27.1499 81.9373 27.1511C81.9383 27.1517 81.9397 27.1527 81.9417 27.154C81.9426 27.1546 81.9437 27.1553 81.9449 27.1561C81.9455 27.1565 81.9462 27.157 81.9468 27.1574C81.9472 27.1576 81.9475 27.1579 81.9479 27.1581C81.948 27.1582 81.9482 27.1584 81.9484 27.1585C81.9485 27.1585 81.9486 27.1586 81.9487 27.1587C81.9488 27.1587 81.9489 27.1588 81.1108 28.4028C80.2727 29.6468 80.2728 29.6469 80.273 29.647C80.273 29.6471 80.2732 29.6472 80.2732 29.6472C80.2734 29.6473 80.2736 29.6475 80.2738 29.6476C80.2742 29.6479 80.2746 29.6481 80.275 29.6484C80.2758 29.6489 80.2766 29.6495 80.2775 29.6501C80.2793 29.6513 80.2812 29.6525 80.2833 29.6539C80.2874 29.6566 80.2921 29.6597 80.2974 29.6632C80.3079 29.6701 80.3208 29.6784 80.336 29.688C80.3663 29.7071 80.4058 29.7313 80.4538 29.7594C80.5494 29.8154 80.6806 29.8877 80.8419 29.9655L82.1452 27.2634ZM91.3974 31.0561C91.544 30.7608 91.6507 30.5733 91.7215 30.4647C91.8273 30.3023 91.7755 30.4362 91.5593 30.5735C91.4289 30.6563 91.0929 30.8312 90.6311 30.7601C90.1365 30.6839 89.8406 30.3812 89.7081 30.1907C89.5885 30.0188 89.5513 29.8748 89.5451 29.8511C89.5349 29.8123 89.5364 29.8033 89.5403 29.8407L92.5241 29.5294C92.506 29.356 92.4555 28.8867 92.1705 28.4772C91.9926 28.2215 91.6437 27.8807 91.088 27.795C90.565 27.7145 90.1595 27.9086 89.9509 28.0411C89.5782 28.2778 89.3344 28.6329 89.2082 28.8266C89.0468 29.0742 88.8811 29.3779 88.7102 29.7224L91.3974 31.0561ZM89.5403 29.8407C89.5787 30.2085 89.5198 31.1111 89.379 32.5308C89.2476 33.8565 89.0581 35.5315 88.9119 37.2012C88.7651 38.8784 88.6543 40.629 88.6813 42.1751C88.7071 43.6524 88.8571 45.1953 89.3942 46.2935L92.0892 44.9756C91.8694 44.5261 91.7063 43.5792 91.6809 42.1228C91.6566 40.7352 91.7565 39.1083 91.9005 37.4627C92.0452 35.8096 92.2266 34.2164 92.3644 32.8269C92.4929 31.5315 92.6016 30.272 92.5241 29.5294L89.5403 29.8407ZM89.3942 46.2935C89.4394 46.3859 89.5264 46.546 89.6762 46.7067C89.824 46.8653 90.1313 47.1271 90.6089 47.1902C91.1206 47.2577 91.5237 47.0593 91.759 46.8759C91.9724 46.7096 92.0954 46.5248 92.1541 46.4272C92.3493 46.1028 92.4295 45.708 92.4655 45.5303C92.5665 45.032 92.6552 44.2954 92.7358 43.4531C92.8997 41.7395 93.0518 39.3426 93.1815 36.9259C93.3116 34.5033 93.4203 32.0393 93.4965 30.1823C93.5346 29.2534 93.5646 28.4756 93.585 27.9299C93.5953 27.657 93.6031 27.4421 93.6084 27.2953C93.6111 27.2219 93.6131 27.1655 93.6144 27.1274C93.6151 27.1083 93.6156 27.0939 93.616 27.0841C93.6161 27.0792 93.6162 27.0755 93.6163 27.073C93.6164 27.0718 93.6164 27.0708 93.6164 27.0702C93.6164 27.0699 93.6165 27.0696 93.6165 27.0695C93.6165 27.0693 93.6165 27.0692 92.1174 27.0169C90.6183 26.9646 90.6183 26.9646 90.6183 26.9648C90.6183 26.9649 90.6183 26.9651 90.6183 26.9654C90.6182 26.966 90.6182 26.9668 90.6182 26.968C90.6181 26.9704 90.618 26.9739 90.6178 26.9786C90.6175 26.9881 90.617 27.0023 90.6163 27.021C90.615 27.0585 90.613 27.1143 90.6104 27.1871C90.6051 27.3326 90.5973 27.5461 90.5871 27.8175C90.5668 28.3603 90.5369 29.1345 90.499 30.0593C90.4231 31.9096 90.315 34.3599 90.1859 36.765C90.0564 39.176 89.907 41.5201 89.7494 43.1674C89.6692 44.0055 89.5922 44.6043 89.5253 44.9346C89.4773 45.1713 89.4731 45.0641 89.5835 44.8805C89.6211 44.8181 89.7229 44.6593 89.9151 44.5094C90.1293 44.3426 90.5111 44.1512 91.0016 44.216C91.458 44.2762 91.7441 44.5254 91.8707 44.6612C91.9993 44.7992 92.0652 44.9265 92.0892 44.9756L89.3942 46.2935ZM92.1174 27.0169C91.5212 28.3933 91.5214 28.3934 91.5216 28.3935C91.5217 28.3935 91.5219 28.3936 91.522 28.3937C91.5223 28.3938 91.5227 28.394 91.5231 28.3941C91.5239 28.3945 91.5249 28.3949 91.5261 28.3954C91.5283 28.3964 91.5313 28.3977 91.5349 28.3992C91.5422 28.4023 91.5521 28.4066 91.5646 28.4118C91.5895 28.4224 91.6246 28.4371 91.6693 28.4555C91.7585 28.4923 91.8859 28.5438 92.0455 28.6057C92.364 28.7294 92.8136 28.8955 93.3457 29.069C94.393 29.4103 95.8301 29.8031 97.239 29.9267L97.5012 26.9382C96.4215 26.8435 95.2322 26.5285 94.2753 26.2166C93.8053 26.0634 93.4084 25.9167 93.1308 25.809C92.9924 25.7552 92.8844 25.7115 92.8127 25.682C92.7769 25.6672 92.7503 25.656 92.7335 25.6489C92.7251 25.6454 92.7192 25.6429 92.7158 25.6414C92.7142 25.6407 92.7131 25.6403 92.7127 25.6401C92.7126 25.64 92.7125 25.64 92.7127 25.6401C92.7127 25.6401 92.7128 25.6401 92.713 25.6402C92.7131 25.6402 92.7132 25.6403 92.7133 25.6403C92.7134 25.6404 92.7136 25.6404 92.1174 27.0169ZM97.239 29.9267C97.8866 29.9835 98.5686 29.9874 99.227 29.8851L98.7662 26.9207C98.4174 26.9749 97.9909 26.9812 97.5012 26.9382L97.239 29.9267ZM99.227 29.8851C100.816 29.6381 102.907 29.2163 104.755 28.4897C106.506 27.8016 108.502 26.6635 109.216 24.7056L106.398 23.6775C106.162 24.325 105.301 25.0519 103.658 25.6977C102.113 26.3051 100.274 26.6863 98.7662 26.9207L99.227 29.8851ZM109.216 24.7056C109.396 24.2111 109.487 23.6827 109.474 23.1285L106.475 23.1976C106.479 23.3758 106.451 23.5321 106.398 23.6775L109.216 24.7056ZM109.474 23.1285C109.47 22.9342 109.452 22.7389 109.423 22.5431L106.456 22.9884C106.468 23.0635 106.473 23.1331 106.475 23.1976L109.474 23.1285ZM109.423 22.5431C109.237 21.3036 108.51 20.2975 107.636 19.6231C106.764 18.9498 105.645 18.5255 104.5 18.5255L104.5 21.5255C104.921 21.5255 105.406 21.6912 105.803 21.9979C106.199 22.3036 106.408 22.6676 106.456 22.9884L109.423 22.5431ZM104.5 18.5255C103.364 18.5255 100.744 18.1576 98.6062 20.3689L100.763 22.4541C101.828 21.3524 102.884 21.5255 104.5 21.5255L104.5 18.5255ZM98.6062 20.3689C96.6328 22.4101 95.6554 25.6564 95.8744 28.5458L98.8658 28.3191C98.7006 26.1385 99.4797 23.7814 100.763 22.4541L98.6062 20.3689ZM95.8744 28.5458C96.0101 30.3361 96.617 32.1525 97.9138 33.5056L100.08 31.4297C99.3938 30.7141 98.9651 29.6294 98.8658 28.3191L95.8744 28.5458ZM97.9138 33.5056C98.4781 34.0943 100.129 35.2116 102.342 35.3507L102.53 32.3566C101.863 32.3146 101.277 32.1205 100.823 31.8996C100.598 31.7897 100.413 31.6773 100.278 31.583C100.132 31.4817 100.072 31.4222 100.08 31.4297L97.9138 33.5056ZM102.342 35.3507C103.647 35.4326 104.941 34.9735 106.054 34.324C107.185 33.6644 108.249 32.7404 109.133 31.7073C110.016 30.6757 110.762 29.4843 111.21 28.26C111.653 27.0505 111.85 25.6769 111.43 24.3823L108.577 25.3072C108.718 25.7431 108.7 26.3892 108.393 27.2288C108.091 28.0536 107.552 28.9406 106.854 29.7569C106.156 30.5718 105.344 31.2651 104.542 31.7327C103.724 32.2103 103.03 32.388 102.53 32.3566L102.342 35.3507ZM111.43 24.3822C111.016 23.1049 109.85 22.8177 109.265 22.7455C108.951 22.7067 108.64 22.7055 108.423 22.7054C108.166 22.7054 108.039 22.7063 107.939 22.6974L107.674 25.6857C107.942 25.7094 108.241 25.7054 108.422 25.7054C108.644 25.7055 108.787 25.7093 108.897 25.7229C109.013 25.7371 108.98 25.7506 108.891 25.6978C108.837 25.6665 108.769 25.6147 108.705 25.5365C108.639 25.4571 108.599 25.3752 108.577 25.3072L111.43 24.3822ZM107.939 22.6974C107.891 22.6931 107.91 22.6906 107.966 22.7079C108.021 22.7246 108.183 22.7815 108.352 22.94C108.544 23.1198 108.664 23.3548 108.704 23.5896C108.74 23.7935 108.704 23.9285 108.7 23.9439L105.804 23.1599C105.665 23.673 105.629 24.5001 106.3 25.129C106.804 25.6015 107.441 25.6649 107.674 25.6857L107.939 22.6974ZM108.699 23.9439C108.715 23.8872 108.63 24.2746 108.16 24.4907C107.937 24.5932 107.732 24.6039 107.596 24.5911C107.471 24.5794 107.398 24.5481 107.394 24.5463L108.555 21.7798C108.248 21.6511 107.602 21.4453 106.907 21.7651C106.192 22.0938 105.916 22.7468 105.804 23.1599L108.699 23.9439ZM107.394 24.5463C107.387 24.5435 107.42 24.557 107.503 24.611C107.583 24.6627 107.681 24.7319 107.805 24.8244C108.021 24.9862 108.377 25.265 108.7 25.4903C109.037 25.7247 109.467 25.9943 109.949 26.1738C110.437 26.3559 111.08 26.4824 111.777 26.2911L110.982 23.3983C111.092 23.3681 111.122 23.4097 110.996 23.3626C110.863 23.313 110.675 23.2091 110.414 23.0276C110.14 22.8369 109.917 22.6573 109.598 22.4198C109.341 22.228 108.959 21.9497 108.555 21.7798L107.394 24.5463ZM116.85 23.5257C118.518 20.1659 119.758 16.1294 119.758 11.0166L116.758 11.0166C116.758 15.6057 115.654 19.1884 114.163 22.1921L116.85 23.5257ZM119.758 11.0166C119.758 10.5133 119.78 9.68818 119.776 9.16946C119.771 8.56071 119.739 7.89884 119.598 7.26149C119.453 6.60922 119.184 5.93566 118.675 5.34302C118.162 4.7458 117.485 4.32367 116.672 4.05066L115.717 6.89461C116.113 7.02754 116.299 7.18046 116.399 7.29768C116.504 7.41949 116.6 7.59977 116.669 7.91107C116.741 8.2373 116.772 8.64872 116.776 9.1933C116.781 9.82791 116.758 10.2362 116.758 11.0166L119.758 11.0166ZM116.672 4.05066C115.383 3.61772 114.276 4.2748 113.595 4.89738C112.885 5.547 112.276 6.46233 111.781 7.40645C110.789 9.29957 110.031 11.7487 109.883 13.6744L112.875 13.9028C112.986 12.4474 113.603 10.3921 114.438 8.79925C114.857 8.00039 115.274 7.42736 115.62 7.11099C115.996 6.76759 115.975 6.98106 115.717 6.89461L116.672 4.05066ZM111.777 26.2911C111.493 26.3689 111.302 26.2914 111.297 26.2895C111.281 26.2836 111.315 26.2957 111.392 26.3528C111.461 26.4043 111.529 26.4646 111.583 26.5158C111.608 26.5401 111.627 26.5595 111.638 26.5706C111.643 26.5762 111.646 26.5795 111.647 26.5801C111.647 26.5804 111.647 26.5801 111.646 26.579C111.645 26.5785 111.644 26.5777 111.644 26.5768C111.643 26.5763 111.643 26.5758 111.642 26.5753C111.642 26.575 111.642 26.5747 111.641 26.5744C111.641 26.5743 111.641 26.574 111.641 26.5739C111.641 26.5737 111.641 26.5735 112.755 25.5694C113.869 24.5654 113.869 24.5652 113.869 24.5649C113.869 24.5648 113.869 24.5646 113.869 24.5644C113.868 24.564 113.868 24.5637 113.868 24.5633C113.867 24.5625 113.866 24.5617 113.865 24.5608C113.864 24.559 113.862 24.557 113.86 24.5548C113.856 24.5504 113.851 24.5451 113.845 24.539C113.834 24.5268 113.819 24.5113 113.802 24.4929C113.767 24.4564 113.719 24.4079 113.66 24.3518C113.546 24.2423 113.379 24.0915 113.177 23.9419C112.983 23.798 112.708 23.619 112.38 23.492C112.063 23.3692 111.555 23.2409 110.982 23.3983L111.777 26.2911ZM112.755 25.5694C113.565 26.8318 113.565 26.8317 113.566 26.8315C113.566 26.8315 113.566 26.8313 113.566 26.8312C113.566 26.831 113.567 26.8308 113.567 26.8305C113.568 26.83 113.569 26.8294 113.57 26.8288C113.572 26.8274 113.575 26.8258 113.578 26.8238C113.584 26.8198 113.592 26.8145 113.602 26.8079C113.622 26.7948 113.649 26.7767 113.683 26.7538C113.751 26.7081 113.846 26.6432 113.96 26.5616C114.187 26.3991 114.499 26.1664 114.836 25.8836C115.467 25.3552 116.361 24.5121 116.85 23.5257L114.163 22.1921C113.965 22.5917 113.483 23.1039 112.91 23.5842C112.645 23.8059 112.397 23.9909 112.217 24.1201C112.127 24.1843 112.055 24.2337 112.007 24.2658C111.983 24.2819 111.965 24.2935 111.955 24.3005C111.95 24.304 111.946 24.3063 111.944 24.3075C111.943 24.308 111.943 24.3083 111.943 24.3082C111.943 24.3082 111.943 24.3081 111.944 24.3079C111.944 24.3078 111.944 24.3077 111.944 24.3075C111.944 24.3075 111.944 24.3074 111.944 24.3073C111.945 24.3072 111.945 24.3071 112.755 25.5694ZM109.883 13.6744C109.53 18.3018 109.877 21.4054 110.349 23.4024C110.586 24.4015 110.853 25.123 111.079 25.618C111.191 25.8654 111.294 26.0555 111.376 26.1948C111.417 26.2645 111.453 26.3213 111.483 26.3661C111.498 26.3885 111.511 26.4079 111.522 26.4244C111.528 26.4327 111.534 26.4402 111.539 26.447C111.541 26.4504 111.543 26.4536 111.546 26.4566C111.547 26.4582 111.548 26.4596 111.549 26.4611C111.549 26.4618 111.55 26.4628 111.55 26.4632C111.551 26.4642 111.552 26.4652 112.755 25.5694C113.958 24.6737 113.959 24.6747 113.96 24.6756C113.96 24.676 113.961 24.6769 113.961 24.6776C113.962 24.6788 113.963 24.68 113.964 24.6812C113.966 24.6836 113.967 24.6858 113.969 24.6878C113.972 24.6919 113.974 24.6953 113.976 24.698C113.98 24.7035 113.982 24.7062 113.981 24.7061C113.981 24.7059 113.974 24.6944 113.96 24.6706C113.932 24.6232 113.878 24.5263 113.808 24.3731C113.668 24.0669 113.463 23.5323 113.269 22.7123C112.881 21.071 112.54 18.2842 112.875 13.9028L109.883 13.6744ZM117.305 28.9492C116.46 28.7017 115.681 27.8961 115.051 26.8826C114.756 26.4069 114.533 25.9477 114.383 25.6064C114.309 25.4371 114.255 25.3002 114.22 25.2091C114.203 25.1637 114.191 25.1299 114.183 25.1095C114.18 25.0993 114.177 25.0925 114.176 25.0892C114.176 25.0876 114.175 25.0869 114.175 25.0871C114.175 25.0872 114.176 25.0875 114.176 25.0881C114.176 25.0884 114.176 25.0887 114.176 25.0891C114.176 25.0893 114.176 25.0897 114.176 25.0898C114.176 25.0901 114.177 25.0905 112.755 25.5694C111.334 26.0484 111.334 26.0488 111.334 26.0492C111.334 26.0494 111.334 26.0498 111.334 26.0501C111.334 26.0508 111.335 26.0515 111.335 26.0523C111.335 26.0538 111.336 26.0556 111.337 26.0576C111.338 26.0617 111.34 26.0667 111.342 26.0727C111.346 26.0846 111.352 26.1004 111.359 26.1197C111.372 26.1584 111.392 26.2115 111.417 26.2771C111.467 26.4082 111.539 26.5906 111.635 26.8094C111.826 27.2445 112.113 27.8374 112.503 28.4647C113.243 29.6572 114.527 31.2612 116.461 31.8281L117.305 28.9492ZM116.461 31.8281C117.815 32.2253 119.028 31.9652 119.848 31.6474C120.262 31.4871 120.598 31.3045 120.834 31.1594C120.953 31.0864 121.049 31.0213 121.12 30.9711C121.155 30.9459 121.185 30.9243 121.208 30.907C121.219 30.8984 121.229 30.8909 121.237 30.8845C121.241 30.8814 121.245 30.8785 121.248 30.8759C121.25 30.8746 121.251 30.8734 121.253 30.8723C121.253 30.8717 121.254 30.8712 121.255 30.8706C121.255 30.8704 121.255 30.87 121.256 30.8699C121.256 30.8695 121.257 30.8691 120.322 29.6957C119.388 28.5222 119.388 28.5219 119.389 28.5215C119.389 28.5214 119.389 28.521 119.39 28.5208C119.39 28.5204 119.391 28.5199 119.391 28.5195C119.392 28.5187 119.393 28.5179 119.394 28.5172C119.396 28.5159 119.397 28.5147 119.398 28.5139C119.401 28.5122 119.401 28.5116 119.401 28.512C119.4 28.5127 119.394 28.5173 119.383 28.525C119.361 28.5406 119.32 28.5684 119.264 28.6033C119.148 28.6742 118.976 28.768 118.765 28.8498C118.335 29.0162 117.828 29.1026 117.305 28.9492L116.461 31.8281ZM120.322 29.6957C121.451 30.6841 121.451 30.6841 121.451 30.684C121.451 30.684 121.451 30.684 121.451 30.684C121.451 30.6839 121.451 30.6839 121.451 30.6838C121.451 30.6837 121.451 30.6836 121.451 30.6834C121.451 30.6831 121.452 30.6826 121.452 30.6821C121.453 30.6811 121.454 30.6797 121.456 30.6779C121.459 30.6743 121.464 30.6692 121.469 30.6626C121.481 30.6494 121.497 30.6304 121.519 30.6057C121.561 30.5564 121.623 30.4847 121.702 30.3927C121.859 30.2088 122.082 29.9438 122.353 29.6156L120.04 27.7056C119.781 28.0198 119.567 28.2723 119.42 28.4453C119.346 28.5318 119.288 28.5984 119.25 28.6428C119.231 28.665 119.216 28.6817 119.207 28.6925C119.202 28.6979 119.199 28.7019 119.196 28.7044C119.195 28.7056 119.195 28.7065 119.194 28.7069C119.194 28.7072 119.194 28.7073 119.194 28.7074C119.194 28.7074 119.194 28.7074 119.194 28.7074C119.194 28.7074 119.194 28.7074 119.194 28.7073C119.194 28.7073 119.194 28.7073 119.194 28.7073C119.194 28.7073 119.194 28.7073 120.322 29.6957ZM122.353 29.6156C123.095 28.7178 124.2 27.3331 125.253 25.8375C126.288 24.3661 127.342 22.6913 127.911 21.2318L125.116 20.1417C124.685 21.2473 123.808 22.6776 122.799 24.1109C121.808 25.52 120.755 26.8397 120.04 27.7056L122.353 29.6156ZM127.911 21.2318C128.602 19.459 128.995 17.9297 129.103 16.4319C129.212 14.9269 129.027 13.5324 128.657 12.0413L125.746 12.7639C126.063 14.0448 126.19 15.112 126.111 16.216C126.031 17.3271 125.735 18.5539 125.116 20.1417L127.911 21.2318ZM128.657 12.0414L128.649 12.0092L125.737 12.7314L125.745 12.7637L128.657 12.0414ZM128.649 12.0091C128.532 11.5368 128.391 10.912 128.069 10.3714C127.694 9.74381 127.164 9.34306 126.541 9.00508L125.11 11.6421C125.302 11.7458 125.396 11.8153 125.443 11.8555C125.48 11.8872 125.488 11.9009 125.493 11.9094C125.504 11.9277 125.531 11.9796 125.575 12.1172C125.621 12.2645 125.667 12.4456 125.738 12.7315L128.649 12.0091ZM126.541 9.00508C125.908 8.66168 125.23 8.47578 124.53 8.50744C123.827 8.53917 123.207 8.78495 122.684 9.14239C121.686 9.82401 120.99 10.9432 120.497 12.0359C119.492 14.2609 118.966 17.1949 118.825 19.294L121.819 19.4939C121.945 17.6062 122.424 15.0578 123.231 13.2707C123.644 12.3574 124.056 11.8381 124.376 11.6196C124.511 11.5269 124.602 11.5072 124.665 11.5044C124.73 11.5015 124.87 11.5119 125.11 11.6421L126.541 9.00508ZM118.825 19.294C118.457 24.8067 119.029 27.7411 119.866 29.3521L122.528 27.969C122.079 27.1056 121.461 24.853 121.819 19.4939L118.825 19.294ZM119.866 29.3521C120.254 30.1002 120.718 30.5975 121.201 30.905C121.439 31.0565 121.665 31.1516 121.864 31.2092C121.963 31.2377 122.053 31.2565 122.132 31.2686C122.172 31.2747 122.209 31.2791 122.243 31.2822C122.26 31.2837 122.276 31.2849 122.291 31.2859C122.299 31.2864 122.306 31.2868 122.314 31.2871C122.317 31.2873 122.321 31.2875 122.325 31.2876C122.326 31.2877 122.328 31.2877 122.33 31.2878C122.331 31.2878 122.332 31.2879 122.332 31.2879C122.334 31.2879 122.335 31.288 122.386 29.7888C122.437 28.2897 122.438 28.2898 122.439 28.2898C122.44 28.2898 122.441 28.2899 122.442 28.2899C122.443 28.29 122.445 28.29 122.447 28.2901C122.45 28.2902 122.454 28.2904 122.457 28.2905C122.464 28.2909 122.47 28.2912 122.477 28.2916C122.49 28.2924 122.503 28.2934 122.515 28.2945C122.54 28.2968 122.563 28.2996 122.585 28.3029C122.628 28.3096 122.666 28.3181 122.698 28.3274C122.764 28.3465 122.801 28.3672 122.813 28.3751C122.845 28.3953 122.714 28.3284 122.528 27.9691L119.866 29.3521ZM122.386 29.7888C121.161 30.6544 121.161 30.6549 121.161 30.6553C121.162 30.6555 121.162 30.656 121.162 30.6563C121.163 30.6569 121.163 30.6576 121.163 30.6582C121.164 30.6596 121.165 30.661 121.167 30.6625C121.169 30.6655 121.171 30.6688 121.174 30.6724C121.179 30.6795 121.185 30.6879 121.192 30.6973C121.206 30.7162 121.224 30.7395 121.245 30.7669C121.288 30.8216 121.346 30.8927 121.419 30.9766C121.566 31.1444 121.776 31.3649 122.054 31.6102C122.608 32.101 123.436 32.6948 124.565 33.1611L125.71 30.3882C124.935 30.0684 124.387 29.6693 124.042 29.3636C123.869 29.2108 123.748 29.0822 123.677 29.0005C123.641 28.9597 123.618 28.9309 123.607 28.917C123.601 28.91 123.599 28.9068 123.6 28.9077C123.6 28.9082 123.601 28.9097 123.603 28.9123C123.604 28.9135 123.605 28.9151 123.606 28.9169C123.607 28.9179 123.608 28.9188 123.609 28.9199C123.609 28.9204 123.609 28.921 123.61 28.9215C123.61 28.9218 123.61 28.9222 123.61 28.9224C123.611 28.9228 123.611 28.9233 122.386 29.7888ZM124.565 33.1611C125.929 33.7243 127.354 33.489 128.448 33.1217C129.568 32.7461 130.57 32.1565 131.246 31.7065L129.583 29.2094C129.016 29.5873 128.261 30.02 127.494 30.2776C126.701 30.5436 126.108 30.5527 125.71 30.3882L124.565 33.1611ZM131.246 31.7065C131.558 31.499 131.812 31.3129 131.991 31.1765C132.081 31.1081 132.152 31.0519 132.203 31.0112C132.229 30.9908 132.249 30.9743 132.264 30.9621C132.271 30.956 132.277 30.9509 132.282 30.947C132.284 30.9451 132.286 30.9434 132.288 30.942C132.289 30.9413 132.29 30.9407 132.29 30.9401C132.291 30.9399 132.291 30.9396 132.291 30.9394C132.291 30.9392 132.292 30.9391 132.292 30.939C132.292 30.939 132.292 30.9389 132.292 30.9389C132.292 30.9388 132.292 30.9387 131.329 29.7888C130.366 28.639 130.366 28.6389 130.366 28.6388C130.366 28.6388 130.366 28.6388 130.366 28.6387C130.366 28.6386 130.366 28.6385 130.366 28.6384C130.366 28.6383 130.367 28.6381 130.367 28.638C130.367 28.6377 130.367 28.6375 130.367 28.6374C130.368 28.6372 130.368 28.6372 130.367 28.6375C130.367 28.6381 130.365 28.6397 130.361 28.6424C130.355 28.6478 130.343 28.6573 130.327 28.6704C130.294 28.6967 130.242 28.7375 130.174 28.7896C130.036 28.8942 129.834 29.0426 129.583 29.2094L131.246 31.7065ZM131.329 29.7888C132.401 30.8378 132.401 30.8376 132.401 30.8375C132.401 30.8374 132.402 30.8372 132.402 30.8371C132.402 30.8368 132.402 30.8364 132.403 30.836C132.404 30.8351 132.405 30.834 132.406 30.8326C132.409 30.8299 132.412 30.8261 132.417 30.8214C132.426 30.8119 132.439 30.7984 132.456 30.781C132.489 30.7464 132.537 30.6965 132.597 30.6327C132.718 30.5051 132.889 30.3217 133.096 30.0935C133.509 29.6382 134.068 28.9997 134.651 28.2681C135.233 27.5393 135.853 26.7005 136.379 25.8459C136.894 25.0094 137.373 24.0722 137.6 23.1588L134.688 22.4362C134.571 22.9087 134.277 23.5385 133.824 24.2727C133.383 24.9889 132.843 25.7246 132.306 26.3972C131.772 27.067 131.256 27.6565 130.873 28.079C130.682 28.2897 130.525 28.4576 130.418 28.5716C130.364 28.6286 130.322 28.672 130.295 28.7005C130.281 28.7148 130.271 28.7253 130.264 28.7319C130.261 28.7353 130.259 28.7376 130.258 28.7389C130.257 28.7396 130.256 28.74 130.256 28.7402C130.256 28.7403 130.256 28.7403 130.256 28.7402C130.256 28.7402 130.256 28.7401 130.256 28.7401C130.256 28.74 130.257 28.7399 131.329 29.7888ZM137.6 23.1588C137.927 21.8407 138.19 20.7034 138.063 19.6885C137.915 18.5147 137.293 17.7017 136.544 16.9131L134.369 18.9799C134.995 19.6387 135.061 19.8652 135.086 20.062C135.131 20.4178 135.049 20.9823 134.688 22.4362L137.6 23.1588ZM136.544 16.9131C136.109 16.4562 135.58 16.1008 134.953 15.9432C134.319 15.7837 133.708 15.8578 133.171 16.0618C132.166 16.4438 131.377 17.2925 130.8 18.1078C129.617 19.7801 128.725 22.1807 128.467 24.0388L131.439 24.451C131.635 23.0375 132.361 21.0959 133.249 19.8404C133.708 19.1918 134.068 18.9302 134.236 18.8661C134.286 18.8472 134.268 18.8642 134.221 18.8526C134.183 18.8429 134.236 18.8403 134.369 18.9799L136.544 16.9131ZM128.467 24.0388C128.313 25.1535 128.202 26.3944 128.253 27.6002C128.303 28.7918 128.514 30.0569 129.085 31.1515L131.745 29.7645C131.459 29.2163 131.291 28.4439 131.25 27.4741C131.21 26.5186 131.297 25.4743 131.439 24.451L128.467 24.0388ZM129.085 31.1515C129.723 32.3748 130.787 33.3312 132.357 33.705L133.052 30.7866C132.404 30.6323 132.018 30.2882 131.745 29.7645L129.085 31.1515ZM132.357 33.705C135.544 34.4637 137.639 32.4153 139.247 30.8706L137.169 28.7071C135.374 30.431 134.441 31.1174 133.052 30.7866L132.357 33.705ZM139.247 30.8706C140.607 29.5639 141.208 27.8115 141.64 26.2962C142.107 24.657 142.385 23.3006 142.991 22.0784L140.304 20.7446C139.535 22.2944 139.14 24.1208 138.755 25.4745C138.334 26.952 137.903 28.0023 137.169 28.7071L139.247 30.8706ZM142.991 22.0784C143.073 21.9147 143.104 21.8605 143.103 21.8622C143.101 21.8665 143.086 21.889 143.063 21.9211C143.046 21.9433 142.985 22.0245 142.885 22.1149C142.862 22.1361 142.489 22.5012 141.877 22.494C141.489 22.4895 141.13 22.3354 140.865 22.0822C140.632 21.8608 140.53 21.6214 140.485 21.4924C140.401 21.2499 140.405 21.0495 140.405 21.0134C140.406 20.9441 140.412 20.8943 140.414 20.8786C140.418 20.8456 140.421 20.8369 140.414 20.8705C140.401 20.9321 140.375 21.0377 140.331 21.2019C140.166 21.8289 139.819 23.0447 139.507 24.413C139.195 25.781 138.895 27.391 138.825 28.8804C138.76 30.2733 138.869 31.9614 139.761 33.1473L142.159 31.3443C141.952 31.0692 141.76 30.3438 141.822 29.0204C141.88 27.7935 142.134 26.3845 142.432 25.0805C142.729 23.7767 143.048 22.6675 143.232 21.9662C143.277 21.7983 143.318 21.6341 143.347 21.4983C143.361 21.4332 143.379 21.344 143.391 21.2498C143.397 21.2036 143.405 21.128 143.405 21.0379C143.406 20.9812 143.408 20.765 143.32 20.5119C143.274 20.3777 143.169 20.1342 142.934 19.9102C142.665 19.6542 142.303 19.4988 141.912 19.4942C141.292 19.487 140.909 19.8573 140.874 19.8892C140.69 20.0554 140.578 20.2419 140.559 20.2732C140.474 20.408 140.386 20.5795 140.304 20.7446L142.991 22.0784ZM139.761 33.1473C140.125 33.6319 140.681 34.3013 141.463 34.6896C142.376 35.1424 143.409 35.128 144.43 34.5704L142.993 31.9373C142.853 32.0136 142.797 32.0108 142.808 32.0105C142.823 32.01 142.826 32.0169 142.797 32.0023C142.756 31.9821 142.676 31.931 142.557 31.8138C142.438 31.697 142.308 31.5427 142.159 31.3443L139.761 33.1473ZM144.43 34.5704C145.619 33.9211 146.425 32.83 147.014 31.7294C147.608 30.621 148.065 29.339 148.47 28.1355C148.889 26.8875 149.248 25.7353 149.672 24.6993C150.098 23.6566 150.52 22.9189 150.967 22.4682L148.838 20.3547C147.966 21.2333 147.364 22.4166 146.895 23.5637C146.423 24.7174 146.015 26.0237 145.626 27.1801C145.223 28.3809 144.832 29.449 144.37 30.3136C143.903 31.186 143.444 31.6908 142.993 31.9373L144.43 34.5704ZM150.967 22.4682C150.942 22.4941 150.883 22.5512 150.795 22.6132C150.722 22.664 150.527 22.7933 150.235 22.8491C149.883 22.9163 149.409 22.8654 149.008 22.5307C148.672 22.2506 148.563 21.913 148.527 21.7753C148.486 21.6186 148.482 21.4936 148.482 21.4404C148.481 21.3779 148.485 21.3318 148.487 21.311C148.492 21.2709 148.496 21.2555 148.491 21.2802C148.465 21.3995 148.393 21.651 148.262 22.0826C148.016 22.887 147.63 24.1123 147.302 25.4265C146.978 26.7286 146.685 28.2105 146.655 29.5449C146.627 30.7682 146.802 32.398 147.991 33.3951L149.919 31.0965C149.869 31.0547 149.629 30.7241 149.654 29.6129C149.677 28.6128 149.905 27.386 150.213 26.1527C150.518 24.9314 150.876 23.7944 151.131 22.957C151.25 22.5677 151.367 22.1784 151.425 21.9055C151.441 21.8321 151.459 21.7342 151.471 21.6282C151.477 21.5711 151.507 21.3138 151.43 21.017C151.389 20.8634 151.274 20.5144 150.93 20.2275C150.521 19.8859 150.037 19.8327 149.672 19.9023C149.368 19.9605 149.158 20.0969 149.068 20.1595C148.963 20.2335 148.885 20.3072 148.838 20.3547L150.967 22.4682ZM147.991 33.3951C149.248 34.4488 150.622 34.3879 151.71 34.1186C152.229 33.9901 152.744 33.8004 153.178 33.6409C153.639 33.4712 154.031 33.3273 154.418 33.2237L153.642 30.3257C153.099 30.4711 152.576 30.6658 152.143 30.8251C151.682 30.9946 151.321 31.1243 150.989 31.2065C150.375 31.3586 150.143 31.2842 149.919 31.0965L147.991 33.3951ZM153.674 33.2318C153.681 33.2335 153.659 33.2274 153.632 33.2073C153.612 33.1921 153.619 33.1912 153.657 33.243C153.702 33.305 153.749 33.3833 153.841 33.5415C153.92 33.6777 154.041 33.8889 154.191 34.0971C154.523 34.5591 155.026 35.054 155.842 35.3085C156.599 35.5445 157.467 35.523 158.454 35.3241L157.862 32.3832C157.129 32.5307 156.823 32.4718 156.735 32.4445C156.707 32.4357 156.695 32.4413 156.627 32.3462C156.576 32.2758 156.526 32.1914 156.435 32.0348C156.357 31.9003 156.235 31.6885 156.086 31.483C155.75 31.019 155.231 30.5238 154.386 30.3175L153.674 33.2318ZM158.454 35.3241C160.31 34.9501 161.657 34.0321 162.798 33.0467C163.353 32.5669 163.895 32.0388 164.396 31.5634C164.913 31.0738 165.416 30.6117 165.962 30.1834L164.112 27.8219C163.45 28.3409 162.863 28.8831 162.333 29.3861C161.787 29.9033 161.323 30.3561 160.836 30.7766C159.893 31.5917 159.009 32.152 157.862 32.3832L158.454 35.3241ZM166.212 29.9355C167.608 28.1776 167.454 25.7915 166.764 23.9991L163.964 25.0765C164.456 26.3531 164.332 27.4779 163.862 28.0698L166.212 29.9355ZM166.764 23.9991C166.316 22.8328 165.576 21.7211 164.602 20.9365L162.72 23.2724C163.213 23.6698 163.671 24.3131 163.964 25.0765L166.764 23.9991ZM164.602 20.9365C163.664 20.1806 162.708 19.6242 161.58 19.4676C160.461 19.3122 159.391 19.5817 158.293 20.0171L159.399 22.8058C160.301 22.4482 160.799 22.3879 161.168 22.4391C161.528 22.4892 161.98 22.6759 162.72 23.2724L164.602 20.9365ZM158.293 20.0171C155.777 21.015 154.011 23.5524 153.06 25.8623C152.57 27.0516 152.249 28.2891 152.154 29.4107C152.065 30.4647 152.152 31.698 152.797 32.6289L155.263 30.9204C155.22 30.8584 155.074 30.4948 155.144 29.6633C155.208 28.8994 155.44 27.9626 155.834 27.0044C156.652 25.0191 157.982 23.3678 159.399 22.8058L158.293 20.0171ZM166.52 29.2291C166.739 27.7944 166.833 26.1971 166.864 24.5664L163.865 24.5091C163.835 26.0764 163.745 27.5266 163.554 28.7762L166.52 29.2291ZM166.864 24.5664C166.897 22.8341 166.86 21.024 166.816 19.2856C166.773 17.5342 166.723 15.8664 166.728 14.3664C166.733 12.8564 166.793 11.5985 166.949 10.6616C167.027 10.1942 167.12 9.86241 167.212 9.64281C167.309 9.41361 167.362 9.40949 167.293 9.45885L165.532 7.03037C164.991 7.42268 164.661 7.97295 164.448 8.47786C164.231 8.99236 164.089 9.57438 163.99 10.1688C163.792 11.3555 163.733 12.8133 163.728 14.3571C163.723 15.9109 163.774 17.6352 163.817 19.3605C163.861 21.0986 163.896 22.8497 163.865 24.5091L166.864 24.5664ZM167.293 9.45885C167.258 9.48471 167.062 9.62546 166.738 9.65926C166.327 9.70225 165.924 9.55031 165.646 9.27253C165.428 9.05484 165.363 8.83683 165.351 8.79651C165.333 8.73642 165.336 8.71721 165.34 8.76759C165.362 9.01707 165.331 9.56123 165.226 10.4731C165.036 12.1352 164.619 14.848 164.354 17.5821C164.084 20.363 163.938 23.4354 164.289 26.1435C164.631 28.7891 165.495 31.4642 167.595 32.9886L169.358 30.5607C168.296 29.7897 167.579 28.1887 167.264 25.7582C166.957 23.3901 167.077 20.5863 167.34 17.8714C167.608 15.1097 167.99 12.7072 168.207 10.8151C168.306 9.94985 168.381 9.10716 168.329 8.50762C168.315 8.34574 168.288 8.14789 168.228 7.94508C168.174 7.76204 168.053 7.43723 167.767 7.15096C167.421 6.80461 166.936 6.62232 166.427 6.6755C166.005 6.71949 165.697 6.91096 165.532 7.03037L167.293 9.45885ZM167.595 32.9886C167.868 33.1863 168.074 33.3524 168.274 33.5131C168.463 33.6649 168.688 33.847 168.938 34.0089C169.513 34.3825 170.109 34.5821 170.972 34.7318L171.484 31.7759C170.862 31.6679 170.693 31.5718 170.57 31.4921C170.47 31.4274 170.363 31.3435 170.153 31.1749C169.955 31.0154 169.697 30.8068 169.358 30.5607L167.595 32.9886ZM170.972 34.7318C172.576 35.0099 173.863 34.4611 174.887 33.8255L173.305 31.2766C172.584 31.7245 172.062 31.876 171.484 31.7759L170.972 34.7318ZM174.887 33.8255C175.563 33.406 176.359 32.7836 176.902 32.4052L175.186 29.9445C174.381 30.5054 173.921 30.8944 173.305 31.2766L174.887 33.8255ZM176.902 32.4052C179.588 30.5317 180.779 27.1982 180.98 24.2868L177.987 24.0801C177.821 26.4866 176.85 28.7835 175.186 29.9445L176.902 32.4052ZM180.98 24.2868C181.098 22.5738 180.931 21.0532 180.302 19.8096C179.642 18.5053 178.561 17.6713 177.209 17.2175L176.254 20.0615C176.966 20.3007 177.37 20.6587 177.625 21.1631C177.91 21.7282 178.087 22.6332 177.987 24.0801L180.98 24.2868ZM177.209 17.2175C176.065 16.8332 174.952 16.861 173.95 17.2879C172.977 17.7023 172.238 18.4366 171.695 19.2474C170.625 20.8424 170.116 23.0133 170.042 24.9498L173.039 25.0649C173.1 23.4754 173.525 21.9045 174.187 20.9182C174.508 20.4382 174.834 20.1719 175.126 20.0479C175.387 19.9363 175.737 19.8879 176.254 20.0615L177.209 17.2175ZM170.042 24.9498C169.98 26.5425 170.098 28.2512 170.549 29.7936C170.999 31.3323 171.821 32.8344 173.263 33.7981L174.93 31.304C174.273 30.8653 173.76 30.0881 173.428 28.9519C173.097 27.8194 172.986 26.4574 173.039 25.0649L170.042 24.9498ZM173.263 33.7981C174.009 34.2972 174.878 34.62 175.858 34.7423L176.229 31.7654C175.688 31.6978 175.268 31.53 174.93 31.304L173.263 33.7981ZM175.858 34.7423C177.848 34.9905 179.569 33.9663 180.863 33.0155C181.531 32.5248 182.191 31.9697 182.771 31.496C183.376 31.0023 183.906 30.5866 184.405 30.2753L182.817 27.7301C182.14 28.1523 181.48 28.6776 180.874 29.172C180.244 29.6864 179.674 30.1666 179.086 30.5981C177.871 31.4917 176.984 31.8595 176.229 31.7654L175.858 34.7423ZM191.689 25.0844C192.325 24.2376 192.668 23.324 192.692 22.3675C192.716 21.4284 192.431 20.5757 192.029 19.8374C191.255 18.4178 189.892 17.1561 188.732 16.1303L186.744 18.3768C187.947 19.4416 188.909 20.3819 189.395 21.2732C189.622 21.6903 189.7 22.0202 189.693 22.2905C189.687 22.5436 189.603 22.8663 189.291 23.2825L191.689 25.0844ZM188.732 16.1303C188.383 15.8209 188.025 15.5467 187.661 15.3526C187.31 15.1658 186.802 14.9712 186.212 15.0517C185.554 15.1416 185.102 15.5285 184.832 15.913C184.59 16.2576 184.461 16.6397 184.382 16.9281C184.229 17.4867 184.128 18.2522 184.029 18.8665C183.918 19.5488 183.785 20.2397 183.563 20.9069L186.41 21.8526C186.709 20.9534 186.872 20.0729 186.99 19.3471C187.119 18.5534 187.179 18.0743 187.276 17.7204C187.322 17.5525 187.34 17.5614 187.287 17.6369C187.206 17.7522 186.985 17.974 186.618 18.0241C186.321 18.0646 186.166 17.9554 186.25 18.0001C186.32 18.0375 186.478 18.1411 186.744 18.3768L188.732 16.1303ZM185.887 30.7354C187.954 33.2775 190.122 33.9646 192.85 34.7019L193.633 31.8058C191.018 31.099 189.652 30.6106 188.214 28.8423L185.887 30.7354ZM192.85 34.7019C195.721 35.4778 198.415 35.5924 200.976 34.9474C203.537 34.3024 205.859 32.9248 208.029 30.8805L205.971 28.6972C204.096 30.4644 202.213 31.5421 200.244 32.0382C198.274 32.5342 196.111 32.4755 193.633 31.8058L192.85 34.7019ZM8.06736 29.7617C8.01618 32.5883 8.31046 38.3067 8.57527 44.2218L11.5723 44.0876C11.3035 38.0849 11.0179 32.5185 11.0669 29.816L8.06736 29.7617ZM8.57527 44.2218C8.74214 47.9491 8.89911 51.7831 8.95857 55.1094C9.01858 58.467 8.97633 61.2066 8.76779 62.7959L11.7423 63.1862C11.9838 61.3459 12.0178 58.3951 11.9581 55.0558C11.8978 51.6854 11.7392 47.816 11.5723 44.0876L8.57527 44.2218ZM8.76779 62.7959C8.46538 65.1005 7.9701 67.2379 7.40931 68.7619C7.12549 69.5333 6.85201 70.0721 6.62543 70.3889C6.3368 70.7925 6.3809 70.5 6.81544 70.5L6.81544 73.5C7.9379 73.5 8.67785 72.6762 9.06557 72.1341C9.51535 71.5052 9.89871 70.684 10.2248 69.7979C10.8837 68.0071 11.4203 65.64 11.7423 63.1862L8.76779 62.7959ZM185.089 29.2572L185.337 27.8158L182.381 27.3068L182.133 28.7482L185.089 29.2572ZM184.405 30.2753C185.023 29.8894 185.658 29.6136 186.332 29.3665L185.298 26.5502C184.521 26.8354 183.676 27.1939 182.817 27.73L184.405 30.2753ZM187.131 27.2385C186.945 26.8982 186.676 26.546 186.281 26.2944C185.858 26.0252 185.394 25.9391 184.964 25.9845C184.568 26.0261 184.249 26.1722 184.037 26.2909C183.821 26.4117 183.64 26.5486 183.523 26.6407C183.361 26.7674 183.347 26.7826 183.295 26.8205C183.281 26.8303 183.315 26.8042 183.38 26.771C183.429 26.7464 183.623 26.6493 183.909 26.6379C184.267 26.6237 184.677 26.7512 184.986 27.0755C185.237 27.3391 185.305 27.6136 185.323 27.6971C185.357 27.8559 185.331 27.9149 185.351 27.7135L182.367 27.4092C182.343 27.6433 182.317 27.9922 182.391 28.3309C182.428 28.5044 182.525 28.8413 182.813 29.1443C183.16 29.5081 183.616 29.6519 184.028 29.6356C184.367 29.6221 184.624 29.5043 184.74 29.4449C184.874 29.377 184.983 29.302 185.05 29.2534C185.16 29.1745 185.332 29.0345 185.371 29.0034C185.455 28.9376 185.492 28.9142 185.504 28.9078C185.519 28.8993 185.436 28.9513 185.278 28.968C185.084 28.9883 184.86 28.9462 184.671 28.8257C184.509 28.723 184.469 28.6243 184.499 28.6781L187.131 27.2385ZM186.066 23.5846L186.465 21.2665L183.508 20.7575L183.109 23.0755L186.066 23.5846ZM183.563 20.9068C183.498 21.1043 183.424 21.4563 183.362 21.7616C183.29 22.1169 183.203 22.5681 183.113 23.0559L186.062 23.6041C186.152 23.1232 186.235 22.6902 186.302 22.358C186.336 22.1913 186.365 22.0562 186.387 21.9561C186.415 21.8341 186.422 21.8185 186.41 21.8527L183.563 20.9068ZM183.113 23.0559C182.804 24.7192 182.407 27.01 182.367 27.4092L185.351 27.7134C185.351 27.7181 185.352 27.7098 185.355 27.6816C185.359 27.656 185.364 27.6219 185.37 27.5787C185.383 27.4923 185.401 27.3793 185.423 27.2427C185.467 26.9701 185.527 26.6155 185.596 26.2154C185.733 25.4155 185.906 24.4447 186.062 23.6041L183.113 23.0559ZM184.499 28.6781C184.897 29.406 185.366 30.0957 185.887 30.7354L188.214 28.8423C187.802 28.3354 187.436 27.7966 187.131 27.2385L184.499 28.6781ZM186.332 29.3664C188.708 28.4942 190.133 27.1561 191.689 25.0844L189.291 23.2825C187.938 25.0828 186.943 25.9463 185.298 26.5502L186.332 29.3664ZM50.0302 17.9388L50.0302 18.6318L53.0302 18.6318L53.0302 17.9388L50.0302 17.9388ZM13.0067 7.6654L13.6946 7.6654L13.6946 4.6654L13.0067 4.6654L13.0067 7.6654ZM185.337 27.8158L186.066 23.5846L183.109 23.0755L182.381 27.3068L185.337 27.8158Z" fill="#2E4F57"/>
</svg>
