<svg width="48" height="48" viewBox="0 0 48 48" fill="none" xmlns="http://www.w3.org/2000/svg">
<g clip-path="url(#clip0_790_7918)">
<rect width="48" height="48" transform="translate(0.5)" fill="white"/>
<path d="M48 24C48 37.2548 37.2548 48 24 48C10.7452 48 1 37.2548 1 24C1 10.7452 10.7452 0 24 0C37.2548 0 48 10.7452 48 24Z" fill="#2E4F57"/>
<path d="M23.7935 17.4117C23.1347 17.396 22.4794 17.5121 21.8662 17.7533C21.253 17.9946 20.6942 18.356 20.2227 18.8163C19.7512 19.2767 19.3765 19.8267 19.1207 20.434C18.8649 21.0413 18.7331 21.6936 18.7331 22.3526C18.7331 23.0116 18.8649 23.6639 19.1207 24.2712C19.3765 24.8785 19.7512 25.4285 20.2227 25.8889C20.6942 26.3492 21.253 26.7107 21.8662 26.9519C22.4794 27.1931 23.1347 27.3093 23.7935 27.2935H34.089L32.4698 25.6757C32.3372 25.5432 32.2628 25.3634 32.2628 25.176C32.2628 24.9886 32.3372 24.8088 32.4698 24.6763C32.6023 24.5437 32.7821 24.4693 32.9695 24.4693C33.1569 24.4693 33.3367 24.5437 33.4692 24.6763L36.2926 27.4996C36.3584 27.5652 36.4105 27.6431 36.4461 27.7289C36.4817 27.8146 36.5 27.9065 36.5 27.9994C36.5 28.0922 36.4817 28.1842 36.4461 28.2699C36.4105 28.3557 36.3584 28.4335 36.2926 28.4991L33.4692 31.3225C33.3367 31.455 33.1569 31.5295 32.9695 31.5295C32.7821 31.5295 32.6023 31.455 32.4698 31.3225C32.3372 31.19 32.2628 31.0102 32.2628 30.8228C32.2628 30.6353 32.3372 30.4556 32.4698 30.323L34.089 28.7052H23.7935C22.3773 28.7051 21.0018 28.2318 19.8854 27.3604C18.769 26.4891 17.9757 25.2696 17.6317 23.8958C17.2877 22.5221 17.4125 21.0727 17.9865 19.778C18.5605 18.4834 19.5506 17.4176 20.7996 16.75C22.0486 16.0825 23.4848 15.8514 24.8802 16.0936C26.2755 16.3357 27.5499 17.0372 28.501 18.0865C29.4521 19.1358 30.0252 20.4729 30.1294 21.8853C30.2336 23.2976 29.8628 24.7043 29.0761 25.8818H27.2522C27.9533 25.1949 28.4339 24.3147 28.6327 23.3534C28.8316 22.3922 28.7396 21.3935 28.3685 20.4848C27.9974 19.5761 27.3641 18.7984 26.5493 18.2511C25.7345 17.7038 24.7751 17.4116 23.7935 17.4117ZM13.2058 27.2935H17.8037C18.247 27.83 18.7594 28.3043 19.3283 28.7052H13.2058C13.0186 28.7052 12.8391 28.6309 12.7067 28.4985C12.5744 28.3661 12.5 28.1866 12.5 27.9994C12.5 27.8122 12.5744 27.6326 12.7067 27.5003C12.8391 27.3679 13.0186 27.2935 13.2058 27.2935Z" fill="#FFFBF3"/>
</g>
<defs>
<clipPath id="clip0_790_7918">
<rect width="48" height="48" rx="12" fill="white"/>
</clipPath>
</defs>
</svg>
