<svg width="48" height="49" viewBox="0 0 48 49" fill="none" xmlns="http://www.w3.org/2000/svg">
<g clip-path="url(#clip0_790_7917)">
<circle cx="24" cy="24.043" r="23.5" stroke="#2E4F57"/>
<path d="M23.7935 17.4547C23.1347 17.4389 22.4794 17.5551 21.8662 17.7963C21.253 18.0375 20.6942 18.399 20.2227 18.8593C19.7512 19.3197 19.3765 19.8697 19.1207 20.477C18.8649 21.0843 18.7331 21.7366 18.7331 22.3956C18.7331 23.0546 18.8649 23.7069 19.1207 24.3142C19.3765 24.9215 19.7512 25.4715 20.2227 25.9319C20.6942 26.3922 21.253 26.7536 21.8662 26.9949C22.4794 27.2361 23.1347 27.3523 23.7935 27.3365H34.089L32.4698 25.7187C32.3372 25.5862 32.2628 25.4064 32.2628 25.219C32.2628 25.0315 32.3372 24.8518 32.4698 24.7192C32.6023 24.5867 32.7821 24.5122 32.9695 24.5122C33.1569 24.5122 33.3367 24.5867 33.4692 24.7192L36.2926 27.5426C36.3584 27.6082 36.4105 27.6861 36.4461 27.7718C36.4817 27.8576 36.5 27.9495 36.5 28.0423C36.5 28.1352 36.4817 28.2271 36.4461 28.3129C36.4105 28.3986 36.3584 28.4765 36.2926 28.5421L33.4692 31.3655C33.3367 31.498 33.1569 31.5725 32.9695 31.5725C32.7821 31.5725 32.6023 31.498 32.4698 31.3655C32.3372 31.2329 32.2628 31.0532 32.2628 30.8657C32.2628 30.6783 32.3372 30.4985 32.4698 30.366L34.089 28.7482H23.7935C22.3773 28.7481 21.0018 28.2748 19.8854 27.4034C18.769 26.532 17.9757 25.3126 17.6317 23.9388C17.2877 22.565 17.4125 21.1157 17.9865 19.821C18.5605 18.5263 19.5506 17.4606 20.7996 16.793C22.0486 16.1254 23.4848 15.8944 24.8802 16.1365C26.2755 16.3787 27.5499 17.0801 28.501 18.1295C29.4521 19.1788 30.0252 20.5159 30.1294 21.9282C30.2336 23.3406 29.8628 24.7473 29.0761 25.9248H27.2522C27.9533 25.2379 28.4339 24.3576 28.6327 23.3964C28.8316 22.4352 28.7396 21.4365 28.3685 20.5278C27.9974 19.619 27.3641 18.8414 26.5493 18.2941C25.7345 17.7468 24.7751 17.4545 23.7935 17.4547ZM13.2058 27.3365H17.8037C18.247 27.8729 18.7594 28.3473 19.3283 28.7482H13.2058C13.0186 28.7482 12.8391 28.6738 12.7067 28.5415C12.5744 28.4091 12.5 28.2295 12.5 28.0423C12.5 27.8551 12.5744 27.6756 12.7067 27.5432C12.8391 27.4109 13.0186 27.3365 13.2058 27.3365Z" fill="#2E4F57"/>
</g>
<defs>
<clipPath id="clip0_790_7917">
<rect y="0.0429688" width="48" height="48" rx="12" fill="white"/>
</clipPath>
</defs>
</svg>
